<?xml version="1.0" encoding="UTF-8"?>
<svg id="Calque_1" data-name="Calque 1" xmlns="http://www.w3.org/2000/svg" viewBox="0 0 595.28 841.89">
  <defs>
    <style>
      .cls-1 {
        fill: #7987b0;
      }

      .cls-2 {
        fill: #6d7da8;
      }

      .cls-3 {
        fill: #a0b6a1;
      }

      .cls-4 {
        fill: #f4f6fa;
      }

      .cls-5 {
        fill: #233a7a;
      }

      .cls-6 {
        fill: #d6dce6;
      }

      .cls-7 {
        fill: #243b7a;
      }

      .cls-8 {
        fill: #fbfbfb;
      }

      .cls-9 {
        fill: #9da7c2;
      }

      .cls-10 {
        fill: #c0dcf7;
      }

      .cls-11 {
        fill: #126e51;
      }

      .cls-12 {
        fill: #5a6b9a;
      }

      .cls-13 {
        fill: #f89c8d;
      }

      .cls-14 {
        fill: #cfebd1;
      }

      .cls-15 {
        fill: #6c8b6e;
      }
    </style>
  </defs>
  <path class="cls-14" d="M8.52,381.47c.28-.21,.24-.51,.24-.8,.14-6.68,.86-13.3,1.71-19.92,1.45-11.26,3.39-22.43,6.29-33.41,1.21-4.58,2.67-9.08,4.1-13.59,2.7-8.56,5.69-17.01,9.14-25.3,3.61-8.68,7.67-17.14,12.39-25.29,3.81-6.59,7.8-13.05,12.09-19.33,3.11-4.56,6.56-8.86,10.12-13.09,4.78-5.67,10.04-10.89,15.37-16.02,5.47-5.27,11.65-9.6,18.31-13.25,6.18-3.38,12.61-6.19,19.34-8.28,5.19-1.61,10.46-2.82,15.87-3.5,4.28-.53,8.55-.95,12.85-1.24,5.95-.41,11.9-.33,17.84-.13,6.15,.21,12.29,.92,18.4,1.84,13.02,1.95,25.6,5.51,37.99,9.83,9.23,3.22,18.24,7,26.91,11.51,9.97,5.19,19.46,11.15,28.46,17.88,1.1,.82,2.12,1.8,2.04,3.38-1.83,1.96-4.15,3.15-6.56,4.19-5.68,2.47-11.78,2.94-17.84,3.51-3.26,.31-6.52,.54-9.78,.82-5.87,.49-11.76,.67-17.64,.94-3.32,.15-6.64-.06-9.97,.21-3.35,.27-6.73,.09-10.09,.23-3.4,.14-6.81,.3-10.22,.39-1.65,.04-3.32,.1-4.97,.22-3.96,.3-7.92,.63-11.89,.96-3.05,.25-6.12,.43-9.16,.8-4.88,.59-9.77,1.18-14.64,1.91-5.69,.85-11.35,1.82-16.97,3.04-11.56,2.52-22.75,6.13-33.23,11.72-9.57,5.1-18.27,11.32-25.58,19.41-3.98,4.41-7.35,9.22-10.11,14.46-3.33,6.34-5.33,13.13-6.82,20.09-1.4,6.54-2.32,13.13-2.28,19.84,.01,2.52,.16,5.04,.06,7.57-.1,2.65-.21,5.29-.49,7.94-.68,6.21-2.11,12.24-4.09,18.14-2.6,7.75-6.13,15.1-10.28,22.13-7.14,12.11-14.05,24.34-20.01,37.09-2.13,4.55-4.08,9.18-5.99,13.84-1.11,2.71-1.71,5.67-3.61,8.03-1.06-1.52-2.24-2.94-2.64-4.85-.33-1.56-.21-3.15-.51-4.68-1.38-6.98-2.38-14.01-2.87-21.11-.37-5.41-.54-10.84-.78-16.26-.12-2.73-.18-5.47-.27-8.21,0-.25-.01-.5-.24-.67v-13Z"/>
  <path class="cls-6" d="M67.27,601.2c0-.07,0-.14-.01-.21,1.87,.02,3.74,.07,5.62,.07,8.95-.03,17.9-.1,26.85-.1,43.31-.01,86.61,0,129.92,0,.46,0,.91,.02,1.37,.03-.01,.07-.01,.14-.01,.22H67.27Z"/>
  <path class="cls-3" d="M15.84,453.7c0-1.15,0-2.3,0-3.45,1.9-2.36,2.5-5.32,3.61-8.03,1.91-4.65,3.86-9.28,5.99-13.84,5.96-12.75,12.87-24.97,20.01-37.09,4.15-7.03,7.67-14.38,10.28-22.13,1.98-5.9,3.41-11.93,4.09-18.14,.29-2.65,.39-5.29,.49-7.94,.1-2.53-.05-5.05-.06-7.57-.03-6.71,.88-13.3,2.28-19.84,1.49-6.96,3.5-13.76,6.82-20.09,2.76-5.24,6.12-10.06,10.11-14.46,7.31-8.09,16.01-14.31,25.58-19.41,10.48-5.59,21.67-9.2,33.23-11.72,5.62-1.23,11.28-2.2,16.97-3.04,4.87-.73,9.75-1.32,14.64-1.91,3.04-.37,6.1-.55,9.16-.8,3.96-.33,7.92-.67,11.89-.96,1.65-.12,3.32-.18,4.97-.22,3.41-.09,6.81-.25,10.22-.39,3.37-.14,6.74,.05,10.09-.23,3.33-.27,6.65-.06,9.97-.21,5.88-.27,11.77-.44,17.64-.94,3.26-.27,6.53-.51,9.78-.82,6.06-.58,12.15-1.04,17.84-3.51,2.4-1.05,4.73-2.24,6.56-4.19,.57,.03,1.14,.07,1.71,.1,1.1,1.46,2.22,2.89,3.74,3.96,.99,.69,2.01,1.35,2.88,2.16,3.4,3.17,6.78,6.38,10.12,9.62,3.4,3.3,6.87,6.53,10.29,9.81,5.78,5.56,11.69,10.98,17.53,16.48,3.39,3.19,6.9,6.24,10.91,8.64,2.76,1.65,5.63,3.01,8.8,3.68,0,.75,.03,1.49,0,2.24-.04,1.4-.21,2.8-.13,4.18,.15,2.35,.13,4.68-.02,7.04-.15,2.31-.04,4.67,2.09,6.28,.54,1.23,1.35,2.28,2.14,3.34,2.31,3.09,5.1,5.55,8.9,6.65,1.62,.95,3.43,1.24,5.23,1.25,3.44,.02,6.88-.15,10.32-.24v-.02c.05,.21,.21,.27,.41,.27,1.57,3.66,1.3,7.38,.41,11.12-.98,4.08-2.62,7.98-3.43,12.1-.09,.47-.24,.92-.06,1.47,.27-.13,.46-.2,.64-.3,5.69-3.32,11.15-6.96,15.94-11.51,4.32-4.1,8.05-8.74,12.06-13.13,26.82-.17,53.64,.37,80.46,.25-.16,1.41,.55,2.42,1.61,3.17,1.12,.78,1.91,1.85,2.7,2.9,3.37,4.47,5.9,9.44,8.43,14.4,4.13,8.12,7.87,16.42,11.75,24.66,2.98,6.32,5.87,12.68,9.45,18.69,.74,1.25,1.93,2.29,2.28,3.7,1.43,5.75,2.77,11.52,4.05,17.31,1.54,6.95,3.59,13.72,6.63,20.18,3.42,7.29,8.17,13.8,12,20.85,4.59,8.45,8.67,17.12,11.87,26.2,1.88,5.32,3.6,10.68,4.65,16.24,.25,1.35,.32,2.75,1.78,3.46,0,1.24,.02,2.47,.03,3.71-.4,1.42-.13,2.86-.15,4.29,.18,1.23,.17,2.47,.14,3.7-.55,.51-1.11,1-1.18,1.84-.42,5.45-1.33,10.84-2.33,16.2-1.66,8.91-3.72,17.73-5.88,26.53-.71,2.89-1.6,5.74-2.04,8.7-20.5,.19-41-.39-61.5-.24-.03-2.77,1.16-5.16,2.43-7.51,1.19-2.19,2.58-4.28,3.69-6.51,8.99-18.03,18.04-36.03,27.22-53.96,3.75-7.34,7.51-14.67,11.25-22.01,1.08-2.11,2.17-4.22,3.19-6.36,.82-1.72,.46-2.31-1.41-2.6-.2-.03-.42-.01-.62-.02-.9-1.57-2.42-2.04-4.03-1.95-2.95,.16-5.88,.02-8.82,0-16.36-.09-32.73-.04-49.09-.04-.58,0-1.16,.08-1.73,.13-1.88,.17-3.74,.13-5.31-1.16-.28-2.27-.73-4.49-1.54-6.64-1.36-3.65-3.52-6.88-5.21-10.36-1.55-3.19-3.5-6.14-5.61-8.97-5.24-7.05-11.11-13.56-17.19-19.87-5.6-5.81-11.29-11.55-17.19-17.07-5.64-5.28-11.18-10.66-17.12-15.63-3.72-3.11-7.56-5.92-11.85-8.19-11.35-5.99-23.35-10.22-35.8-13.22-4.03-.97-8.08-1.82-12.17-2.51-4.78-.8-9.56-1.56-14.36-2.18-3.08-.4-6.14-1.16-9.18,.18,.27-1.42,.6-2.83,.51-4.3-.07-1.03-.12-2.1,.04-3.11,.64-3.89,.93-7.81,.92-11.75-.02-5.73-.15-11.46-.22-17.19,0-.43-.06-.83-.28-1.19,.06-1.36,1.15-1.44,2.11-1.69,5.25-1.36,9.71-3.91,12.72-8.56,1.41-2.17,2.26-4.54,1.78-7.2-.69-3.86-3.29-6.1-6.61-7.73-2.88-1.41-5.96-1.34-9.04-1.28-1.43,.03-2.85,0-4.38,0,.61-1.36,1.16-2.51,1.64-3.7,.43-1.05,.05-1.8-1.06-2.08-2.43-.62-4.88-1.04-7.39-.57-1.76,.33-3.51,.73-5.28,.05-.39-2.31-1.96-3.54-3.95-4.42-2.74-1.21-5.61-1.73-8.6-1.53-1.4,.1-2.78-.35-4.18-.04-.22-.57-.78-.58-1.23-.71-1.73-.5-3.47-.25-5.18,.12-2.16,.46-4.32,.88-6.55,.53-1.86-.3-3.76-.36-5.6-.07-10.52,1.64-17.95,7.44-22.42,17.04-2.84,6.12-3.79,12.61-3.52,19.33,.17,4.28,.75,8.53,1.01,12.8-1.54,2.06-3.34,3.9-4.72,6.09-3.82,6.07-3.69,13.61,.44,19.46,2.53,3.59,6.1,5.67,10.3,6.73,.09,1.67-.84,2.63-2.29,3.17-1.28,.48-2.59,.91-3.88,1.36-8.19,2.86-16.04,6.49-23.44,11.01-9.99,6.09-18.97,13.43-26.82,22.15-4.62,5.14-8.81,10.6-12.6,16.37-5.05,7.68-9.05,15.88-12.51,24.37-2.34,5.73-4.56,11.52-7.08,17.17-2.66,5.96-4.13,12.13-4.45,18.64-.1,1.99-.1,3.98-.21,5.97-.32,5.88-.64,11.76-.97,17.64-.12,2.17,.19,4.31,.29,6.47,.13,2.81,.5,5.61,.77,8.41,.39,3.91,.98,7.82,1.1,11.74,.08,2.46,.83,4.16,3.01,5.23,0,2.33,0,4.66,0,6.99-.89,.58-.95,1.49-.95,2.42,0,6.44,0,12.87,0,19.31,0,1.15-.28,2.12-1.3,2.77-.17-.01-.33-.03-.5-.03-12.13,.01-24.26,.03-36.39,.05-.29,0-.59-.03-.82,.2-3.48,.01-6.96,.03-10.43,.04-.73-.09-1.47,0-2.22-.18-2.13-.5-4.3-.56-6.43,0-.49,.13-.98,.15-1.47,.19-4.05,0-8.09,0-12.14,0-2.17,0-4.34-.01-6.51-.02-3.1-3.62-6.09-7.35-9.33-10.85-3.83-4.15-7.55-8.4-10.99-12.87-7.88-10.22-14.73-21.11-20.71-32.54-3.33-6.37-6.48-12.84-9.46-19.39-1.84-4.05-3.34-8.22-4.59-12.48-1.3-4.42-2.63-8.84-4.9-12.89Z"/>
  <path class="cls-11" d="M398.48,317.98c-4.01,4.39-7.75,9.03-12.06,13.13-4.79,4.55-10.25,8.2-15.94,11.51-.18,.1-.37,.17-.64,.3-.18-.55-.03-1.01,.06-1.47,.82-4.13,2.46-8.02,3.43-12.1,.9-3.74,1.16-7.47-.41-11.12-.06-.21-.22-.27-.42-.27,0,0,0,.02,0,.02-1.69-1.01-3.6-1.11-5.48-1.21-3.36-.17-6.7,.44-10.06,.19-3.8-1.1-6.59-3.56-8.9-6.65-.79-1.06-1.6-2.11-2.14-3.34,.02-.5,.06-1,.06-1.49,0-14.74,0-29.48,0-44.22,0-6.94,.06-13.88-.42-20.82-.31-4.45,.22-8.87,1.45-13.18h0c1.44-1.01,2.68-2.16,3.07-3.98,.06-.07,.12-.13,.19-.2,.65-.23,1.19-.66,1.73-1.07,1.19-.73,2.43-1.36,3.75-1.83,10.44-.04,20.89-.07,31.33-.1,39.14-.13,78.27-.05,117.41-.05,.5,0,1-.03,1.5-.04,4.5,1.65,7.48,4.95,9.75,9.01,.08,.13,.06,.32,.08,.48-.02,.46-.07,.91-.07,1.37,.06,9.28,.1,18.57,.21,27.85,.11,9.2-.07,18.4,.21,27.6,.16,5.16,.11,10.33,.04,15.49-.04,2.91-.84,5.65-2.43,8.13-2.35,3.65-5.86,5.67-9.8,7.11-1.05-.3-2.13-.32-3.21-.31-2.73,.02-5.47,.06-8.2,.07-27.68,.06-55.35,.12-83.03,.18-1.5,0-3,0-4.5,0-.75,0-1.49-.08-2.23-.14-1.55-.13-3.19-.37-4.32,1.16Zm32.83-46.75c19.41,0,38.81,0,58.22-.01,.66,0,1.33-.09,1.97-.25,1.22-.3,1.79-1.21,1.77-2.65-.02-1.45-.49-2.01-1.85-2.39-.99-.28-1.99-.12-2.98-.12-20.78-.03-41.56-.07-62.34-.05-18.49,.02-36.97-.16-55.45,.23-1.89,.04-2.71,.62-2.88,2.06-.17,1.47,.6,2.44,2.36,2.81,1.18,.24,2.37,.38,3.59,.38,19.2-.01,38.4,0,57.6,0Zm-28.87,11.51c8.92,.13,19.91-.03,30.9,.14,11.41,.18,22.82-.06,34.23-.1,7.42-.03,14.83-.03,22.25-.04,.62,0,1.23,0,1.85-.19,1.45-.46,1.88-1,1.86-2.52-.02-1.39-.61-2.17-1.98-2.46-.6-.13-1.24-.12-1.86-.12-6.29,0-12.58,.03-18.87,.03-27.12,.02-54.23-.04-81.35,.2-5.07,.05-10.15,.15-15.22-.35-1.6-.16-3.23,.14-4.79,.65-1.11,.36-1.61,1.17-1.59,2.26,.02,1.16,.6,1.95,1.79,2.23,.81,.2,1.63,.27,2.47,.27,9.42,0,18.83,0,30.31,0Zm4.06-39.79c-10.75,0-21.49,0-32.24,0-.79,0-1.58,0-2.37,.05-2.26,.11-3.75,1.29-3.91,3.08-.26,2.97,.8,4.63,3.29,5.16,.78,.17,1.55,.26,2.35,.2,4.23-.34,8.47-.45,12.71-.41,2.58,.02,5.16,.06,7.73,.14,4.75,.14,9.49-.15,14.23-.15,10.41,0,20.83,0,31.24,0,1,0,2-.01,2.96-.32,1.75-.56,2.71-1.89,2.72-3.75,.01-1.76-.93-3.07-2.65-3.66-.96-.33-1.96-.35-2.96-.35-11.04,0-22.08,0-33.12,0Zm10.78,47.03c-12.45,0-24.9,0-37.35,0-3.16,0-6.33-.02-9.49,.01-1.86,.02-2.79,1.18-2.5,3.02,.27,1.72,1.52,2.6,3.76,2.72,3.33,.19,6.64-.34,9.97-.33,27.02,.03,54.05,.01,81.07,.02,.88,0,1.74-.07,2.58-.34,1.25-.41,1.71-1.33,1.72-2.58,.01-1.27-.64-1.99-1.8-2.36-.58-.19-1.15-.15-1.73-.15-15.41,0-30.81,0-46.22,0Zm56.43-47.17c-1.08,0-2.17-.02-3.25,0-4.53,.08-9.07-.19-13.6,.18-2.29,.19-3.74,1.42-3.89,3.3-.21,2.6,.79,4.13,3.1,4.63,.76,.17,1.56,.24,2.35,.24,10.24-.03,20.47-.08,30.71-.13,.37,0,.75-.01,1.12-.05,2.34-.22,3.61-1.41,3.63-3.76,.01-2.15-.46-3.53-3.09-4.13-1-.23-2.06-.26-3.1-.26-4.66-.03-9.33-.01-13.99-.01Z"/>
  <path class="cls-1" d="M543.25,569.71c.6,9.52,.4,19.05,.44,28.58,0,1.97-.67,2.67-2.59,2.67-4.58,0-9.16,0-13.74,0-96.04,0-192.08,0-288.13,0-1.41,0-2.83,.03-4.23-.26,0-9.41,0-18.83,0-28.24q0-2.5,2.49-2.5c72.39-.16,144.77,.26,217.16-.21,29.53-.19,59.07-.03,88.6-.03Z"/>
  <path class="cls-12" d="M543.25,569.71c-29.53,0-59.07-.17-88.6,.03-72.39,.47-144.77,.05-217.16,.21q-2.49,0-2.49,2.5c0,9.41,0,18.83,0,28.24-1.33,.1-2.66,.19-3.99,.29-.46-.01-.91-.03-1.37-.03-43.31,0-86.61,0-129.92,0-8.95,0-17.9,.07-26.85,.1-1.87,0-3.74-.04-5.62-.07-2.57-.46-3.69-1.7-3.44-4.44,.33-3.63,.07-7.23-.05-10.85,.33-.3,.19-.7,.2-1.06,.11-4.98,.22-9.97,.32-14.95,.25,0,.5,.01,.75,.01,53.3,0,106.61,0,159.91,0,2.95,0,5.9,.17,8.84-.2,.75-.1,1.02-.3,.98-1.04-.05-1.08-.02-2.16-.03-3.25,1.65-.4,3.34-.2,5.01-.26,.77-.03,1.57,.19,2.28-.28,10.25,.02,20.49,.03,30.74,.05,66.02,.12,132.04-.24,198.06,.19,15.45,.1,30.91,.01,46.36,.02,8.83,0,17.66,.01,26.49,.02-.15,1.59-.29,3.17-.44,4.76Z"/>
  <path class="cls-14" d="M355.74,220.18c-1.32,.47-2.56,1.1-3.75,1.83-.78,.02-1.61-.02-1.73,1.07-.06,.07-.12,.13-.19,.2-1.99,.58-2.91,1.99-3.07,3.98,0,0,0,0,0,0-.42,.16-.6,.54-.86,.87-1.87,2.47-2.11,5.4-2.12,8.29-.07,16.94-.05,33.87-.06,50.81-3.16-.67-6.04-2.03-8.8-3.68-4.02-2.4-7.52-5.45-10.91-8.64-5.84-5.49-11.75-10.91-17.53-16.48-3.41-3.28-6.89-6.51-10.29-9.81-3.34-3.24-6.72-6.45-10.12-9.62-.87-.82-1.9-1.48-2.88-2.16-1.52-1.06-2.64-2.5-3.74-3.96,1.84-1.87,3.81-3.54,6.11-4.85,9.45-5.41,18.45-11.56,27.89-16.99,10.76-6.18,21.82-11.75,33.74-15.39,5.56-1.7,11.2-2.96,16.98-3.67,5.78-.71,11.58-1.12,17.39-.93,5.25,.17,10.49,.65,15.71,1.37,12.31,1.69,24.19,5.02,35.87,9.12,7.72,2.71,15.4,5.56,22.77,9.16,3.29,1.6,6.48,3.39,9.67,5.17,2.22,1.24,4.63,2.03,7.22,2.14,7.48,.3,14.96-.24,22.44,.01,1.85,.06,3.7,.21,5.5,.71-1.11,.16-2.22,.27-3.35,.27-44.9,0-89.8,0-134.7,0-.99,0-1.99-.11-2.98-.14-1.5-.04-3.1,0-4.23,1.33Z"/>
  <path class="cls-14" d="M503.97,317.02c3.94-1.45,7.46-3.47,9.8-7.11,1.59-2.48,2.39-5.22,2.43-8.13,.07-5.16,.12-10.33-.04-15.49-.29-9.2-.1-18.4-.21-27.6-.11-9.28-.14-18.57-.21-27.85,0-.46,.04-.91,.07-1.37,1.16,.89,1.27,2.31,1.57,3.54,.39,1.59,.54,3.28,.56,4.92,.06,7.37,.3,14.76-.05,22.11-.3,6.21,1.25,11.86,3.48,17.5,2.29,5.8,3.86,11.81,4.89,17.97,.78,4.7,1.24,9.43,1.51,14.19,.41,7.28,.19,14.56,.15,21.84-.02,3.05,.6,5.9,1.29,8.81,1.63,6.85,2.67,13.84,4.6,20.61,1.91,6.7,3.53,13.47,5.15,20.24,1.88,7.86,3.72,15.73,5.74,23.56,1.84,7.12,4.09,14.11,6.34,21.1,1.83,5.68,3.15,11.5,4.25,17.37,.79,4.2,1.32,8.42,1.86,12.64,.34,2.66,.45,5.37,.62,8.06,.39,6.03,.11,12.06,.2,18.09,.02,1.69-.19,3.39,.02,5.07,.19,1.49-.53,2.36-1.85,2.85-1.46-.71-1.53-2.11-1.78-3.46-1.05-5.56-2.77-10.92-4.65-16.24-3.2-9.07-7.29-17.74-11.87-26.2-3.83-7.05-8.58-13.56-12-20.85-3.03-6.46-5.09-13.23-6.63-20.18-1.28-5.79-2.62-11.56-4.05-17.31-.35-1.4-1.54-2.45-2.28-3.7-3.58-6.02-6.47-12.38-9.45-18.69-3.88-8.24-7.62-16.54-11.75-24.66-2.52-4.96-5.06-9.93-8.43-14.4-.79-1.05-1.58-2.12-2.7-2.9-1.07-.75-1.77-1.75-1.61-3.17,.91,0,1.83,0,2.74-.02,2.16-.03,4.32,.02,6.47-.11,2.78-.17,5.55-.17,8.33,0,2.57,.16,5.12,.15,7.49-1.08Z"/>
  <path class="cls-9" d="M543.69,564.95c-8.83,0-17.66-.01-26.49-.02-15.45,0-30.91,.08-46.36-.02-66.02-.43-132.04-.07-198.06-.19-10.25-.02-20.49-.03-30.74-.05,.29-2.82,.22-5.64,.21-8.46,0-.43,.2-.93-.28-1.26,.03-.09,.05-.17,.08-.26,1.01,.29,2.05,.27,3.09,.27,24.56,0,49.13,0,73.69,.02,2.11,0,4.23,.09,6.35,.16,5.28,.16,10.57,.03,15.86,.01,.54,.01,1.08,.03,1.62,.03,24.43-.12,48.87,.1,73.3-.15,21.86-.23,43.72-.07,65.58-.08,.57,0,1.17,.13,1.7-.24,20.5-.15,41,.43,61.5,.24,1.08,0,2.15,.01,3.23,.02,.11,.05,.23,.11,.35,.14,2.57,.65,3.26,1.56,2.88,4.15-.17,1.16-.22,2.3-.24,3.46-.02,1.49-.54,1.98-2.04,2.04-1.74,.06-3.47,.13-5.21,.2Z"/>
  <path class="cls-14" d="M547.96,554.97c-1.08,0-2.15-.01-3.23-.02,.45-2.95,1.34-5.81,2.04-8.7,2.16-8.8,4.22-17.62,5.88-26.53,1-5.36,1.91-10.75,2.33-16.2,.06-.83,.63-1.32,1.18-1.84,2.59,1.99,1.58,4.75,1.49,7.27-.08,2.23-.47,4.44-.66,6.67-.36,4.33-.9,8.64-1.65,12.92-.77,4.38-1.74,8.7-3.13,12.92-.97,2.96-2.11,5.86-3.12,8.8-.53,1.53-1.07,3.06-1.13,4.7Z"/>
  <path class="cls-9" d="M355.74,220.18c1.12-1.33,2.73-1.37,4.23-1.33,.98,.03,1.98,.14,2.98,.14,44.9,0,89.8,0,134.7,0,1.13,0,2.24-.11,3.35-.27,1.32,0,2.63,.12,3.9,.49,.43,.13,.85,.33,1.08,.76-.5,.02-1,.04-1.5,.04-39.14,0-78.27-.07-117.41,.05-10.44,.03-20.89,.06-31.33,.1Z"/>
  <path class="cls-14" d="M556.01,497.98c.02-1.43-.25-2.87,.15-4.29,.82,1.46,1.34,2.91-.15,4.29Z"/>
  <path class="cls-14" d="M64.28,569.7c-.11,4.98-.21,9.97-.32,14.95,0,.36,.13,.76-.2,1.06-2.29-.94-4.22-2.46-6.19-3.9-3.87-2.82-7.45-5.99-10.73-9.46-4.96-5.25-9.46-10.9-13.84-16.64-4.18-5.47-7.77-11.29-10.79-17.46-3.95-8.08-6.86-16.55-9.19-25.24-1.55-5.77-2.82-11.59-3.87-17.46-.54-2.98-.39-6.01-.2-9.05,.22-3.52,.84-6.99,1.14-10.49,.44-5.33,1.5-10.56,2.73-15.77,.2-.84,.34-1.7,.48-2.56,.29-1.69,.81-3.23,2.55-3.98,2.27,4.06,3.6,8.47,4.9,12.89,1.25,4.27,2.74,8.44,4.59,12.48,2.98,6.55,6.13,13.01,9.46,19.39,5.98,11.43,12.83,22.32,20.71,32.54,3.44,4.47,7.16,8.72,10.99,12.87,3.23,3.5,6.23,7.22,9.33,10.85-3.19-.11-6.37,.43-9.56,.24-1.69-.1-3.38-.38-5.08-.21-1.5,.15-3.06,.13-4.4,1-.61,0-.76,.37-.76,.89,0,1.62-.06,3.24,.01,4.85,.09,1.82,.91,2.64,2.73,3,1.79,.35,3.63,.27,5.43,.48,0,.56,0,1.13,0,1.69-.13,.13-.09,.24,.04,.34,.02,.9,.04,1.8,.06,2.71Z"/>
  <path class="cls-4" d="M483.22,554.7c-.52,.37-1.13,.24-1.7,.24-21.86,.02-43.72-.15-65.58,.08-24.44,.25-48.87,.03-73.3,.15-.54,0-1.08-.02-1.62-.03,.07-1.66,.88-3.1,1.46-4.59,2.81-7.25,6.65-14.04,9.71-21.19,2.23-5.19,4.62-10.31,6.94-15.46,3.02-6.7,6.04-13.41,9.07-20.11,2.14-4.73,4.31-9.45,6.45-14.19,3.03-6.7,6.05-13.4,9.06-20.11,1.12-2.49,3.02-3.55,5.73-3.55,45.99,.02,91.98,.02,137.98,0,.52,0,1.09,.21,1.55-.23,.21,0,.42-.02,.62,.02,1.87,.3,2.22,.88,1.41,2.6-1.01,2.14-2.11,4.25-3.19,6.36-3.75,7.34-7.5,14.68-11.25,22.01-9.18,17.93-18.22,35.94-27.22,53.96-1.11,2.23-2.5,4.32-3.69,6.51-1.27,2.34-2.46,4.73-2.43,7.51Zm-45.21-34.96c1.52-.08,2.59-.12,3.66-.22,4.64-.44,8.72-2.3,12.53-4.81,3.4-2.24,3.7-5.9,.88-8.78-1.37-1.4-2.97-2.45-4.83-2.96-5.14-1.42-10.36-1.66-15.58-.57-3.72,.77-7.06,2.5-9.82,5.12-2.8,2.66-2.86,7.69,1.55,9.56,3.86,1.64,7.85,2.6,11.6,2.67Z"/>
  <path class="cls-15" d="M312.75,348.24c3.04-1.34,6.09-.58,9.18-.18,4.81,.62,9.59,1.38,14.36,2.18,4.09,.69,8.14,1.54,12.17,2.51,12.45,3,24.45,7.22,35.8,13.22,4.29,2.26,8.14,5.07,11.85,8.19,5.93,4.97,11.47,10.35,17.12,15.63,5.9,5.52,11.59,11.26,17.19,17.07,6.08,6.31,11.95,12.82,17.19,19.87,2.11,2.84,4.06,5.78,5.61,8.97,1.69,3.47,3.85,6.71,5.21,10.36,.81,2.16,1.26,4.37,1.54,6.64-5.07,.23-10.15,.24-15.22,.26-16.23,.07-32.46-.28-48.69,.19-4.61,.13-9.22,.38-13.83,.58-2.9,.12-4.85,1.41-5.99,4.21-2.02,4.97-4.28,9.83-6.4,14.75-3.86,8.97-8.28,17.69-12.11,26.68-2.84,6.66-5.72,13.3-9.81,19.32-1.3-1.94-3.07-3.46-4.67-5.12-1.38-1.43-2.69-2.93-3.29-4.89,0-4.04,0-8.07,.02-12.11,0-1.84-.27-3.63-.78-5.39-.36-3.22-.13-6.46-.26-9.69,.02-2.75-.11-5.51,.08-8.24,.22-3.09-.07-6.1-.82-9.08-.32-3.22-.7-6.43-.94-9.65-.44-6.16-.91-12.32-1.76-18.45-.93-6.71-2.27-13.33-4.53-19.73-2.25-6.36-5.79-11.78-11.65-15.4-3.05-1.88-6.31-3.36-9.56-4.87-6.42-2.98-13.02-5.47-19.84-7.38-.67-.25-1.33-.5-2-.74-1.19-1.2-2.59-1.5-4.18-1-.8-.21-.83-.92-.96-1.54-.12-.53-.2-1.04-.82-1.23-.5-.76-1.15-1.31-2.04-1.53-1.83-.45-3.47-1.34-5.1-2.27-4.36-2.48-8.17-5.57-10.87-9.85-.61-.96-1.44-1.85-1.48-3.09l-.02,.02c2.32,1.52,4.62,3.07,6.96,4.56,3.87,2.46,7.89,4.59,12.51,5.25,.34,1.08,1.01,1.41,2.07,.95,.37-.16,.78-.19,1.18-.29,.1,.02,.2,.04,.3,.06,.66,.93,1.31,.93,1.97,0,.16-.02,.32-.05,.48-.07,3.04,.56,5.88,.29,8.26-1.93,2.87-.82,5.29-2.44,7.33-4.54,5.75-5.92,8.72-13.01,8.67-21.3,0-.57-.14-1.17,.29-1.67,.08-.09,.16-.18,.23-.27h0Z"/>
  <path class="cls-13" d="M262.51,367.47c.04,1.24,.87,2.13,1.48,3.09,2.7,4.29,6.51,7.37,10.87,9.85,1.63,.93,3.26,1.81,5.1,2.27,.9,.22,1.55,.77,2.04,1.53-.08,.23-.18,.46-.24,.7-1.02,4.17-.78,8.41-.8,12.65,0,1.21-.15,2.4-.54,3.55-.39,1.16-1.2,1.93-2.42,2.08-1.11,.14-2.25,.17-3.36-.07-6.12-1.32-11.98-3.35-17.35-6.65-5.35-3.29-9.82-7.49-13.3-12.74,1.79-1.76,3.3-3.71,4.32-6.04,1.82-4.14,2.13-8.59,2.7-12.99,.29-2.21,.42-4.45,1.24-6.56,3.06,1.05,5.96,2.35,7.88,5.14,.21,.31,.44,.44,.81,.46,1.4,.08,2.65,.63,3.88,1.24,.85,.42,1.69,.9,2.66,1.01,.98,3.26,3.51,4.71,6.55,5.49,2.17,.56,3.75-.14,4.77-1.95,.98-1.74,.7-3.54-.97-5.05-3.05-2.77-5.57-3.71-9.59-1.47-5.35-2.89-10.04-6.65-14.23-11.04,1.47-1.69,3.11-3.21,4.57-4.92,3.91-4.57,5.22-9.65,3.52-15.5-.65-2.23-1.52-4.38-2.15-6.61,4.93-4.94,8.04-10.69,8.37-17.83,.12-2.55,1.3-3.71,3.49-4.04,2.09-.31,4.14,.2,6.18,.53,6.41,1.03,12.6,2.95,18.89,4.51,5.53,1.37,11.09,2.55,16.83,2.58,.22,.37,.27,.77,.28,1.19,.07,5.73,.19,11.46,.22,17.19,.02,3.94-.28,7.85-.92,11.75-.17,1.01-.11,2.08-.04,3.11,.09,1.47-.24,2.88-.51,4.3,0,0,0,0,0,0-.08,.09-.16,.18-.23,.27-.43,.5-.3,1.09-.29,1.67,.04,8.3-2.92,15.39-8.67,21.3-2.04,2.1-4.46,3.72-7.33,4.54-.87-.01-1.76-.12-2.61-.02-2.01,.25-4.03,.56-5.65,1.95-.16,.02-.32,.05-.48,.07-.66,0-1.31,0-1.97,0-.1-.02-.2-.04-.29-.06-.91-1.09-2.01-1.19-3.25-.66-4.63-.66-8.64-2.8-12.51-5.25-2.34-1.49-4.64-3.04-6.96-4.56-.01-.03-.02-.07-.04-.09-.01-.01-.04,0-.07-.01,.04,.03,.08,.06,.13,.09Zm37.84-8.65c-4.16,0-7.99-.01-11.81,.01-.62,0-1.25,.12-1.84,.29-1.43,.4-1.83,1.1-1.43,2.52,.84,3.03,2.94,4.84,5.81,5.85,2.38,.84,3.38,.38,4.17-2.02,.51-1.55,1.35-2.83,2.51-3.95,.83-.8,1.6-1.66,2.6-2.7Zm-18.39-19.83c-.02,.71,0,1.42,.3,2.08,.32,.72,.8,1.26,1.61,1.42,1.96,.37,3.32-.49,3.91-2.4,.32-1.02,.28-2.06,.19-3.09-.13-1.44-.85-2.32-1.98-2.56-1.37-.29-2.71,.31-3.38,1.54-.51,.94-.68,1.96-.66,3.01Zm20.25,1.67c-.02,2.03,.65,3.06,2.13,3.29,1.66,.26,2.84-.65,3.4-2.58,.28-.98,.3-1.95,.04-2.95-.27-1.07-.8-1.8-1.95-1.99-1.18-.2-2.13,.17-2.82,1.15-.64,.92-.83,1.98-.81,3.08Zm-11.32-10.74c-2.51-2.9-7.16-3.79-10.73-2.15-.78,.36-1.38,.86-1.17,1.81,.21,1,1.05,.93,1.8,.89,3.32-.17,6.64-.36,10.11-.55Zm15.92-1.12c-.79,0-1.59-.08-2.36,.02-.86,.12-1.46,.65-1.39,1.62,.06,.93,.62,1.5,1.53,1.48,1.79-.05,3.56,.19,5.33,.26,.91,.03,1.3-.43,1.24-1.31-.07-.97-.54-1.62-1.49-1.92-.94-.3-1.9-.17-2.85-.14Zm-14.23,24.49c2.87,2.59,7.85,1.76,9.96-.77,.29-.35,.31-.79,.19-1.18-.21-.69-.79-1.15-1.43-1.24-.65-.09-.47,.64-.59,1.02-.51,1.67-1.65,2.3-3.44,2.04-1.55-.22-3.14-.91-4.69,.13Zm4.29-6.66c-.56-4.49,1.05-8.88,.55-13.63-1.61,4.68-2.07,9.12-.55,13.63Zm-34.92,20.31q-.09-1.2-.91-1.61c.02,.67,.19,1.2,.91,1.61Z"/>
  <path class="cls-15" d="M252.25,358.15c-.82,2.11-.95,4.36-1.24,6.56-.58,4.4-.88,8.84-2.7,12.99-1.02,2.32-2.53,4.27-4.32,6.04-.62-.04-1.22,.08-1.83,.19-1.91,.36-3.59,1.42-5.48,1.83-.45-.2-.89-.41-1.34-.61-1.5-.66-2.47-.44-3.6,.82-.59,0-1.17,.02-1.76,.02-5.76,1.45-11.41,3.27-16.91,5.52-7.51,3.06-14.99,6.2-21.67,10.9-5.14,3.61-9.04,8.27-11.57,14.06-1.31,2.99-1.92,6.18-2.81,9.28-1.1,3.83-2.21,7.65-3.32,11.47-4.09-.19-7.21,1.88-9.84,4.62-3.26,3.38-5.33,7.51-6.39,12.1-1.58,6.82-1.85,13.79-2.18,20.74-.19,3.94-.17,7.9-.22,11.84-.15,11.62-.06,23.23-.07,34.85,0,.54-.04,1.08-.06,1.62-2.19-1.06-2.94-2.77-3.01-5.23-.12-3.92-.72-7.83-1.1-11.74-.28-2.8-.65-5.6-.77-8.41-.1-2.16-.41-4.3-.29-6.47,.34-5.88,.66-11.76,.97-17.64,.11-1.99,.12-3.98,.21-5.97,.31-6.51,1.79-12.68,4.45-18.64,2.52-5.65,4.74-11.44,7.08-17.17,3.46-8.49,7.47-16.69,12.51-24.37,3.8-5.77,7.98-11.23,12.6-16.37,7.84-8.72,16.83-16.06,26.82-22.15,7.4-4.52,15.25-8.14,23.44-11.01,1.29-.45,2.6-.88,3.88-1.36,1.45-.55,2.38-1.5,2.29-3.17,1.99-.02,3.99-.04,5.98-.06,.92,1.57,2.31,2.92,2.25,4.93Z"/>
  <path class="cls-6" d="M347.94,518.71c4.09-6.03,6.97-12.66,9.81-19.32,3.83-8.99,8.25-17.71,12.11-26.68,2.12-4.92,4.38-9.79,6.4-14.75,1.14-2.8,3.08-4.09,5.99-4.21,4.61-.19,9.21-.44,13.83-.58,16.23-.47,32.46-.12,48.69-.19,5.07-.02,10.15-.03,15.22-.26,1.57,1.3,3.43,1.34,5.31,1.16,.58-.05,1.15-.13,1.73-.13,16.36,0,32.73-.05,49.09,.04,2.94,.02,5.88,.15,8.82,0,1.62-.09,3.14,.38,4.03,1.95-.46,.43-1.03,.23-1.55,.23-45.99,.01-91.98,.02-137.98,0-2.71,0-4.61,1.06-5.73,3.55-3.01,6.71-6.03,13.41-9.06,20.11-2.14,4.73-4.31,9.45-6.45,14.19-3.03,6.7-6.05,13.4-9.07,20.11-2.32,5.15-4.72,10.27-6.94,15.46-3.06,7.15-6.9,13.94-9.71,21.19-.58,1.49-1.39,2.93-1.46,4.59-5.29,.02-10.58,.15-15.86-.01-2.11-.06-4.23-.16-6.35-.16-24.56-.02-49.13-.02-73.69-.02-1.04,0-2.08,.02-3.09-.27-.02-2.24-.04-4.49-.05-6.73,.36-.29,.72-.58,1.08-.86,5.71,0,11.42-.02,17.12-.02,1,.31,1.95,1,3.07,.39,.28,.36,.68,.25,1.04,.25,11.25,0,22.5-.01,33.76-.02,11.84,.16,23.68-.24,35.51,.27,1.11,.05,1.85-.39,1.91-1.61,2.36-4.01,4.38-8.2,6.36-12.4,2.33-4.96,4.52-9.98,6.11-15.23Z"/>
  <path class="cls-5" d="M313.72,310.7c-5.74-.02-11.3-1.2-16.83-2.58-6.28-1.56-12.48-3.48-18.89-4.51-2.04-.33-4.1-.84-6.18-.53-2.19,.32-3.37,1.48-3.49,4.04-.33,7.14-3.45,12.89-8.37,17.83-.25-.27-.51-.53-.75-.8-1.84-2.02-3.79-3.89-6.36-4.96-.07-2.35,.86-4.45,1.66-6.58,5.86-15.56,16.37-26.42,32.26-31.83,3.74-1.27,7.59-2.06,11.46-2.83,1.77,.68,3.53,.27,5.28-.05,2.52-.47,4.96-.04,7.39,.57,1.11,.28,1.49,1.03,1.06,2.08-.48,1.19-1.04,2.34-1.64,3.7,1.52,0,2.95,.02,4.38,0,3.08-.06,6.16-.13,9.04,1.28,3.32,1.63,5.92,3.87,6.61,7.73,.48,2.66-.38,5.03-1.78,7.2-3.01,4.65-7.47,7.2-12.72,8.56-.96,.25-2.05,.32-2.11,1.69Z"/>
  <path class="cls-11" d="M154.95,522.99c.02-.54,.06-1.08,.06-1.62,0-11.62-.08-23.24,.07-34.85,.05-3.95,.02-7.9,.22-11.84,.34-6.95,.6-13.92,2.18-20.74,1.06-4.59,3.13-8.72,6.39-12.1,2.64-2.73,5.75-4.81,9.84-4.62,0,.41,.08,.85-.01,1.24-1.49,6.25-2.62,12.58-3.6,18.93-.59,3.85-1.1,7.72-1.58,11.59-.48,3.91-.89,7.83-1.3,11.75-.42,4.04-.82,8.09-1.2,12.13-.29,3.02-.48,6.04-.81,9.05-.47,4.35-.77,8.7-.19,13.05,.72,5.4,3.18,9.95,7.1,13.67,3.12,2.96,6.69,5.33,10.46,7.39,.06,.06,.12,.13,.18,.19v-.02c-.08,.53,.15,1,.28,1.49-.17,5.65-.34,11.31-.5,16.96-3.87,.69-7.77,1.15-11.7,1.26-5.22,.14-10.41-.32-15.56-1.21-.08-6.05-.16-12.09-.24-18.14-.03-2.2-.06-4.39-.08-6.59,0-2.33,0-4.66,0-6.99Z"/>
  <path class="cls-8" d="M252.84,319.18c2.57,1.08,4.53,2.94,6.36,4.96,.25,.27,.5,.54,.75,.8,.63,2.23,1.5,4.38,2.15,6.61,1.71,5.85,.39,10.93-3.52,15.5-1.46,1.71-3.1,3.24-4.57,4.92-.75,0-1.5-.03-2.24,0-.83,.04-1.56,.28-1.77,1.23-1.99,.02-3.99,.04-5.98,.06-4.21-1.06-7.77-3.14-10.3-6.73-4.12-5.85-4.25-13.39-.44-19.46,1.38-2.19,3.19-4.03,4.72-6.09,1.5-.2,2.66-1.01,3.71-2.02,3.71,.04,7.42-.05,11.12,.21Zm-3.35,6.31l-.09-.06s.07,.03,.1,.05c.56,1.36,1.9,2.03,2.76,3.13,.05,.07,.3,.08,.32,.04,.07-.13,.17-.38,.11-.44-1.03-.96-1.59-2.47-3.21-2.72Zm-12.36,4.19c-1.15,1.39-2.02,2.91-1.86,4.72,.26,2.91,1.78,5.23,3.87,7.19,.09,.08,.33,.1,.45,.04,.22-.12,.2-.35,.06-.53-.18-.23-.37-.45-.59-.64-1.46-1.35-2.17-2.97-2.09-4.99,.07-1.92-.03-3.85,.15-5.79Zm3.82,12.6c2.61,1.84,5.79,1.76,6.8,0h-6.8Zm12.52-6.48c.65-1.73,1.09-3.46-.05-5.43-.83,1.97-.49,3.7,.05,5.43Zm-2.45,4.2c-.84,.28-1.58,.33-1.76,1.2-.06,.28,.14,.51,.42,.5,.9-.06,1.08-.76,1.33-1.69Zm.16-.24c1.16-.17,1.23-1.14,1.64-1.85,.09-.16,.05-.33-.15-.39-.2-.06-.32,.07-.4,.21-.37,.67-.73,1.35-1.1,2.03Zm-3.57-15.44c-.58-.11-1.1-.61-1.68-.05-.18,.17-.13,.35,.11,.47,.61,.3,1.16,.39,1.57-.42Z"/>
  <path class="cls-6" d="M252.84,319.18c-3.7-.26-7.41-.18-11.12-.21,.99-8.35,3.89-16.05,8.22-23.2,7.34-12.11,18.19-19.63,31.55-23.8,1.39-.31,2.78,.13,4.18,.04,2.98-.2,5.85,.32,8.6,1.53,1.99,.88,3.57,2.11,3.95,4.42-3.86,.77-7.72,1.56-11.46,2.83-15.89,5.41-26.4,16.27-32.26,31.83-.8,2.12-1.72,4.23-1.66,6.58Z"/>
  <path class="cls-7" d="M281.49,271.97c-13.35,4.17-24.2,11.69-31.55,23.8-4.34,7.15-7.23,14.85-8.22,23.2-1.06,1.01-2.22,1.82-3.71,2.02-.25-4.27-.83-8.52-1.01-12.8-.27-6.71,.67-13.21,3.52-19.33,4.46-9.6,11.9-15.39,22.42-17.04,1.84-.29,3.74-.22,5.6,.07,2.23,.35,4.38-.07,6.55-.53,1.72-.36,3.45-.62,5.18-.12,.46,.13,1.01,.15,1.23,.71Z"/>
  <path class="cls-9" d="M343.98,287.22c0-16.94-.01-33.87,.06-50.81,.01-2.89,.25-5.82,2.12-8.29,.25-.33,.44-.71,.86-.87-1.23,4.31-1.76,8.73-1.45,13.18,.48,6.94,.42,13.88,.42,20.82,0,14.74,0,29.48,0,44.22,0,.5-.04,1-.06,1.49-2.13-1.61-2.24-3.97-2.09-6.28,.15-2.36,.17-4.69,.02-7.04-.09-1.39,.09-2.79,.13-4.18,.02-.74,0-1.49,0-2.24Z"/>
  <path class="cls-9" d="M154.96,529.97c.03,2.2,.05,4.39,.08,6.59,.08,6.05,.16,12.09,.24,18.14-.89,.78-1.79,1.29-3.1,1.29-31.32-.04-62.64-.04-93.97-.05-.48,0-1,.17-1.44-.2,1.34-.87,2.9-.85,4.4-1,1.69-.17,3.39,.11,5.08,.21,3.19,.19,6.37-.34,9.56-.24,2.17,0,4.34,.01,6.51,.02,.06,.05,.13,.14,.19,.14,3.92,.09,7.84,.16,11.75,0,.07,0,.13-.09,.19-.14,.49-.04,.98-.06,1.47-.19,2.14-.55,4.3-.49,6.43,0,.75,.18,1.48,.09,2.22,.18,.31,.32,.71,.19,1.06,.19,3.12,.02,6.24,.01,9.36,.02,2.08,.22,4.13-.24,6.2-.24,9.71-.02,19.43,.08,29.14,.27,.83,.02,1.65,0,2.38-.49,1.02-.65,1.3-1.63,1.3-2.77-.01-6.44,0-12.87,0-19.31,0-.93,.06-1.84,.95-2.42Z"/>
  <path class="cls-9" d="M503.97,317.02c-2.37,1.23-4.92,1.24-7.49,1.08-2.78-.17-5.55-.17-8.33,0-2.15,.13-4.32,.08-6.47,.11-.91,.01-1.83,.01-2.74,.02-26.82,.11-53.64-.42-80.46-.25,1.13-1.53,2.77-1.29,4.32-1.16,.74,.06,1.49,.14,2.23,.14,1.5,0,3,0,4.5,0,27.68-.06,55.35-.12,83.03-.18,2.73,0,5.47-.05,8.2-.07,1.08,0,2.16,.01,3.21,.31Z"/>
  <path class="cls-9" d="M356.97,316.95c3.36,.24,6.71-.37,10.06-.19,1.88,.1,3.79,.2,5.48,1.21-3.44,.09-6.88,.26-10.32,.24-1.8-.01-3.61-.31-5.23-1.25Z"/>
  <path class="cls-6" d="M152.71,554.48c-.73,.48-1.55,.5-2.38,.49-9.71-.19-19.43-.28-29.14-.27-2.07,0-4.12,.46-6.2,.24,0-.08,.01-.17,0-.25,.23-.23,.53-.2,.82-.2,12.13-.02,24.26-.03,36.39-.05,.17,0,.33,.02,.5,.03Z"/>
  <path class="cls-6" d="M94.46,554.73c-.06,.05-.13,.14-.19,.14-3.92,.16-7.84,.09-11.75,0-.07,0-.13-.09-.19-.14,4.05,0,8.09,0,12.14,0Z"/>
  <path class="cls-4" d="M115.01,554.69c0,.08,0,.17,0,.25-3.12,0-6.24,0-9.36-.02-.36,0-.76,.12-1.06-.19,3.48-.01,6.96-.03,10.44-.04Z"/>
  <path class="cls-9" d="M372.5,317.94c.2,0,.36,.06,.42,.27-.2,0-.36-.07-.42-.27Z"/>
  <path class="cls-10" d="M431.3,271.23c-19.2,0-38.4,0-57.6,0-1.21,0-2.41-.13-3.59-.38-1.76-.36-2.53-1.34-2.36-2.81,.17-1.45,.99-2.02,2.88-2.06,18.48-.38,36.97-.21,55.45-.23,20.78-.02,41.56,.02,62.34,.05,.99,0,1.98-.16,2.98,.12,1.36,.38,1.84,.94,1.85,2.39,.02,1.44-.55,2.35-1.77,2.65-.64,.16-1.31,.25-1.97,.25-19.41,.01-38.81,.01-58.22,.01Z"/>
  <path class="cls-10" d="M402.43,282.74c-11.48,0-20.9,0-30.31,0-.84,0-1.65-.07-2.47-.27-1.19-.29-1.77-1.08-1.79-2.23-.02-1.09,.48-1.9,1.59-2.26,1.56-.51,3.18-.81,4.79-.65,5.07,.5,10.14,.4,15.22,.35,27.12-.24,54.23-.18,81.35-.2,6.29,0,12.58-.03,18.87-.03,.62,0,1.26,0,1.86,.12,1.37,.28,1.97,1.07,1.98,2.46,.02,1.52-.41,2.07-1.86,2.52-.62,.19-1.23,.19-1.85,.19-7.42,.02-14.83,.02-22.25,.04-11.41,.04-22.82,.27-34.23,.1-10.99-.17-21.98-.01-30.9-.14Z"/>
  <path class="cls-4" d="M406.49,242.95c11.04,0,22.08,0,33.12,0,1,0,2,.02,2.96,.35,1.72,.59,2.66,1.9,2.65,3.66-.01,1.85-.97,3.19-2.72,3.75-.96,.31-1.96,.32-2.96,.32-10.41,0-20.83,0-31.24,0-4.74,0-9.48,.29-14.23,.15-2.58-.08-5.16-.12-7.73-.14-4.24-.04-8.48,.07-12.71,.41-.8,.06-1.58-.03-2.35-.2-2.49-.54-3.54-2.19-3.29-5.16,.15-1.79,1.65-2.97,3.91-3.08,.79-.04,1.58-.05,2.37-.05,10.75,0,21.49,0,32.24,0Z"/>
  <path class="cls-10" d="M417.26,289.98c15.41,0,30.81,0,46.22,0,.58,0,1.15-.04,1.73,.15,1.17,.38,1.81,1.09,1.8,2.36,0,1.25-.47,2.17-1.72,2.58-.84,.27-1.7,.34-2.58,.34-27.02,0-54.05,0-81.07-.02-3.33,0-6.64,.52-9.97,.33-2.23-.12-3.49-1-3.76-2.72-.29-1.84,.63-3,2.5-3.02,3.16-.03,6.33-.01,9.49-.01,12.45,0,24.9,0,37.35,0Z"/>
  <path class="cls-4" d="M473.7,242.81c4.66,0,9.33-.01,13.99,.01,1.03,0,2.09,.04,3.1,.26,2.63,.6,3.1,1.98,3.09,4.13-.01,2.35-1.29,3.55-3.63,3.76-.37,.03-.75,.05-1.12,.05-10.24,.05-20.47,.1-30.71,.13-.78,0-1.58-.07-2.35-.24-2.31-.5-3.31-2.04-3.1-4.63,.15-1.88,1.6-3.11,3.89-3.3,4.53-.37,9.07-.1,13.6-.18,1.08-.02,2.16,0,3.25,0Z"/>
  <path class="cls-9" d="M347.01,227.26c.16-1.99,1.08-3.4,3.07-3.98-.39,1.81-1.64,2.97-3.07,3.98Z"/>
  <path class="cls-9" d="M350.27,223.08c.12-1.09,.94-1.05,1.73-1.07-.54,.41-1.07,.84-1.73,1.07Z"/>
  <path class="cls-2" d="M56.77,555.74c.44,.37,.96,.2,1.44,.2,31.32,.01,62.64,0,93.97,.05,1.31,0,2.21-.5,3.1-1.29,5.15,.89,10.34,1.35,15.56,1.21,3.92-.11,7.83-.57,11.7-1.26,4.15,.11,8.31,.3,12.46,.31,15.65,.03,31.3,0,46.96,0,.49,.33,.28,.83,.28,1.26,0,2.82,.07,5.65-.21,8.46-.71,.46-1.51,.25-2.28,.28-1.67,.06-3.35-.15-5.01,.26-15.49-.18-30.97-.09-46.46-.17-41.36-.21-82.73-.08-124.09-.08-1.81-.21-3.64-.13-5.43-.48-1.82-.35-2.64-1.18-2.73-3-.08-1.61,0-3.23-.01-4.85,0-.53,.15-.9,.76-.89Z"/>
  <path class="cls-7" d="M64.19,564.96c41.36,0,82.73-.13,124.09,.08,15.49,.08,30.97,0,46.46,.17,0,1.08-.02,2.17,.03,3.25,.03,.74-.23,.94-.98,1.04-2.95,.37-5.9,.2-8.84,.2-53.3,.02-106.61,0-159.91,0-.25,0-.5,0-.75-.01-.02-.9-.04-1.8-.06-2.71-.01-.11-.03-.23-.04-.34,0-.56,0-1.13,0-1.69Z"/>
  <path class="cls-5" d="M241.96,554.95c-15.65,0-31.3,.04-46.96,0-4.15,0-8.31-.2-12.46-.31,.17-5.65,.34-11.31,.5-16.96,4.27,1.17,8.53,2.41,12.82,3.51,10.03,2.58,20.2,4.45,30.51,5.56,5.19,.56,10.39,.96,15.61,1.2,.02,2.24,.04,4.49,.05,6.73-.03,.09-.05,.17-.08,.26Z"/>
  <path class="cls-2" d="M64.18,566.65c.01,.11,.03,.23,.04,.34-.13-.1-.17-.21-.04-.34Z"/>
  <path class="cls-6" d="M438.01,519.74c-3.76-.07-7.74-1.03-11.6-2.67-4.41-1.88-4.35-6.9-1.55-9.56,2.76-2.62,6.1-4.35,9.82-5.12,5.22-1.08,10.45-.85,15.58,.57,1.86,.51,3.45,1.56,4.83,2.96,2.82,2.88,2.51,6.54-.88,8.78-3.81,2.51-7.89,4.37-12.53,4.81-1.08,.1-2.15,.14-3.66,.22Z"/>
  <path class="cls-8" d="M236.68,385.75c1.89-.4,3.57-1.47,5.48-1.83,.61-.12,1.21-.23,1.83-.19,3.48,5.25,7.95,9.45,13.3,12.74,5.37,3.3,11.22,5.33,17.35,6.65,1.1,.24,2.25,.21,3.36,.07,1.21-.15,2.03-.92,2.42-2.08,.39-1.15,.53-2.34,.54-3.55,.02-4.23-.23-8.48,.8-12.65,.06-.24,.16-.47,.24-.7,.61,.18,.7,.7,.82,1.23,.13,.62,.16,1.33,.96,1.54,.46,2.02,.9,4.05,1.4,6.07,3.72,15.11,5.99,30.48,7.79,45.92,.86,7.39,1.53,14.8,2.11,22.22,.74,9.37,1.21,18.75,1.62,28.14,.2,4.53,.26,9.06,.39,13.6-.08,.91-.18,1.82-.24,2.73-.16,2.5-.18,4.99,.94,7.33-.06,5.57-.12,11.13-.18,16.7-2.65,.11-5.3,.1-7.93,.37-3.73,.38-7.33,.09-10.82-1.33-1.28-1-2.75-1.65-4.24-2.26-4.11-1.71-8.49-2.68-12.54-4.55-.03-.4-.07-.8-.1-1.21-.04-1.56-.08-3.12-.12-4.68,.21-1.1,.14-2.21,.15-3.31,0-.98-.02-1.96-.77-2.74,0-.33,.02-.67,0-1-.43-6.89-.81-13.78-1.32-20.67-.42-5.6-.95-11.19-1.52-16.77-.67-6.53-1.45-13.06-2.39-19.56-1.02-7.07-2.04-14.14-3.66-21.11-2.82-12.12-7.06-23.77-11.71-35.29-1.32-3.27-2.63-6.54-3.95-9.81Z"/>
  <path class="cls-5" d="M297.6,529.67c.06-5.57,.12-11.13,.18-16.7,1.3-.28,1.76-1.33,2.13-2.4,1.19-3.45,2.37-6.91,3.34-10.43,2.52-9.07,4.55-18.26,5.86-27.57,.57-4.01-.54-7.67-3.87-10.36h.01c-.09-.08-.18-.16-.27-.25l.02,.02c-.25-1.34-.68-2.61-1.3-3.82-.59-1.15-1.47-1.95-2.78-2.21-.07-.03-.13-.08-.17-.15-.56-2.83-.3-5.59,.69-8.31,.29-.81,.56-1.65,.56-2.54v.02c2.57-.68,3.28-2.85,4-5.02l-.02,.02c.09-.09,.18-.18,.27-.27h-.01c2.14-1.63,3.31-3.75,3.26-6.5-.04-2.57-1.03-4.86-2.09-7.11-4.94-10.53-9.94-21.04-14.86-31.58-.89-1.92-1.97-3.75-2.6-5.79,6.82,1.91,13.42,4.4,19.84,7.38,3.25,1.5,6.51,2.98,9.56,4.87,5.86,3.62,9.4,9.04,11.65,15.4,2.26,6.4,3.6,13.02,4.53,19.73,.85,6.13,1.32,12.28,1.76,18.45,.23,3.22,.62,6.44,.94,9.65-.07,.19-.2,.38-.2,.56-.02,4.15-.11,8.3,.03,12.45,.05,1.44,.09,2.98,.91,4.31,.13,3.23-.1,6.47,.26,9.69-.24,1.15-.11,2.33-.16,3.49-.14,3.19-.12,6.39-.04,9.58,.04,1.51,.23,3.04,.96,4.42,.6,1.96,1.91,3.46,3.29,4.89,1.61,1.66,3.37,3.18,4.67,5.12-1.6,5.25-3.78,10.27-6.11,15.23-1.98,4.21-4,8.39-6.36,12.41-.28,.07-.57,.11-.84,.2-2.3,.79-2.51,.7-3.67-1.5-.76-1.44-1.68-2.77-2.72-4.01-2.95-3.49-6.62-6.15-10.17-8.97-.02-.54-.07-1.08-.07-1.62,0-14.11,0-28.22,0-42.33v-1.58c-1.78,15.09-1.18,30.21-.99,45.33-6.41-1.25-12.86-2.15-19.41-2.19Zm18.44-67.71c-.01,5.57-.02,11.15-.04,16.72,0,.55,.07,1.03,.78,1,.61-.03,.98-.28,.98-1-.03-5.57-.04-11.15-.05-16.72,.41-5.19,.22-10.38,0-15.56-.2-4.43-.62-8.84-.97-13.26-.16-2.05-.39-4.09-.58-6.13-.09,.17-.11,.33-.11,.49,0,11.49,0,22.97,0,34.46Z"/>
  <path class="cls-7" d="M300.76,455.8c.04,.07,.1,.12,.17,.15,.22,.8,.41,1.61,.67,2.39,.58,1.72,1.47,3.17,3.4,3.63,0,0-.02-.02-.02-.02,.09,.09,.18,.18,.27,.26h-.01c-.08,.41,.07,.8,.19,1.2,.67,2.36,1.15,4.76,1.29,7.2,.28,4.75-.27,9.44-1.36,14.07-1.63,6.9-4,13.59-5.53,20.51-.21,.94-.54,.72-1.04,.36-.54-.38-.76-.98-.99-1.55-.17-.42-.2-.91-.72-1.09-.12-4.53-.19-9.07-.39-13.6-.41-9.39-.88-18.77-1.62-28.14-.58-7.42-1.25-14.83-2.11-22.22-1.8-15.44-4.07-30.8-7.79-45.92-.5-2.01-.93-4.04-1.4-6.07,1.59-.5,2.99-.21,4.18,1,.18,.46,.32,.94,.53,1.39,5.47,11.82,10.96,23.64,16.43,35.47,1.51,3.26,2.63,6.61,2.37,10.31-.11,1.6-.81,3.03-1.03,4.58h.01c-.09,.07-.18,.16-.27,.25,0,0,.02-.02,.02-.02-1.12-.03-2.01,.47-2.65,1.35-.79,1.08-1.14,2.36-1.37,3.67v-.02c-1.32,1.19-2.43,2.57-3.27,4.14-.68,1.28-.69,2.59,.01,3.91,.55,1.04,1.34,1.88,2.03,2.8Z"/>
  <path class="cls-1" d="M306.24,439.73c.22-1.55,.92-2.98,1.03-4.58,.27-3.7-.86-7.04-2.37-10.31-5.47-11.83-10.95-23.64-16.43-35.47-.21-.45-.35-.93-.53-1.39,.67,.25,1.33,.5,2,.74,.63,2.04,1.71,3.87,2.6,5.79,4.92,10.54,9.92,21.05,14.86,31.58,1.06,2.25,2.05,4.54,2.09,7.11,.04,2.75-1.13,4.87-3.26,6.52Z"/>
  <path class="cls-2" d="M338.96,481.52c-.82-1.32-.86-2.87-.91-4.31-.13-4.15-.04-8.3-.03-12.45,0-.19,.13-.38,.2-.56,.75,2.98,1.04,5.99,.82,9.08-.2,2.73-.07,5.49-.08,8.24Z"/>
  <path class="cls-2" d="M339.98,508.7c-.73-1.38-.93-2.91-.96-4.42-.08-3.19-.1-6.39,.04-9.58,.05-1.16-.08-2.34,.16-3.49,.5,1.76,.78,3.55,.78,5.39-.01,4.04-.01,8.07-.02,12.11Z"/>
  <path class="cls-9" d="M287.96,377.95c1.63-1.39,3.64-1.7,5.65-1.95,.86-.11,1.74,0,2.61,.02-2.39,2.22-5.23,2.49-8.26,1.93Z"/>
  <path class="cls-9" d="M281.97,377.3c1.24-.53,2.34-.43,3.25,.66-.39,.09-.81,.13-1.18,.29-1.06,.46-1.73,.13-2.07-.95Z"/>
  <path class="cls-9" d="M285.51,378.02c.66,0,1.31,0,1.97,0-.66,.93-1.31,.93-1.97,0Z"/>
  <path class="cls-3" d="M312.52,348.5c.08-.09,.16-.18,.23-.27-.08,.09-.16,.18-.23,.27Z"/>
  <path class="cls-7" d="M300.35,358.81c-.99,1.04-1.77,1.9-2.6,2.7-1.16,1.12-2,2.4-2.51,3.95-.78,2.39-1.79,2.85-4.17,2.02-2.88-1.01-4.97-2.83-5.81-5.85-.39-1.42,0-2.11,1.43-2.52,.6-.17,1.23-.29,1.84-.29,3.82-.03,7.65-.01,11.81-.01Z"/>
  <path class="cls-7" d="M268.24,363.02c4.02-2.24,6.54-1.31,9.59,1.47,1.67,1.52,1.95,3.32,.97,5.05-1.02,1.81-2.59,2.5-4.77,1.95-3.04-.78-5.56-2.24-6.55-5.49,.25-.99,.51-1.98,.76-2.97Z"/>
  <path class="cls-6" d="M268.24,363.02c-.25,.99-.51,1.98-.76,2.97-.97-.11-1.81-.59-2.66-1.01-1.23-.61-2.48-1.16-3.88-1.24-.37-.02-.6-.15-.81-.46-1.92-2.79-4.82-4.09-7.88-5.14,.06-2.02-1.33-3.37-2.25-4.93,.21-.95,.94-1.19,1.77-1.23,.75-.03,1.5,0,2.24,0,4.19,4.39,8.88,8.14,14.23,11.04Z"/>
  <path class="cls-7" d="M281.96,338.99c-.02-1.06,.15-2.08,.66-3.01,.68-1.23,2.01-1.82,3.38-1.54,1.12,.23,1.84,1.12,1.98,2.56,.1,1.03,.13,2.07-.19,3.09-.6,1.91-1.96,2.76-3.91,2.4-.82-.15-1.3-.7-1.61-1.42-.3-.66-.32-1.37-.3-2.08Z"/>
  <path class="cls-7" d="M302.21,340.66c-.02-1.11,.17-2.16,.81-3.08,.68-.99,1.63-1.35,2.82-1.15,1.15,.19,1.68,.93,1.95,1.99,.25,1,.24,1.97-.04,2.95-.56,1.93-1.74,2.84-3.4,2.58-1.47-.23-2.14-1.26-2.12-3.29Z"/>
  <path class="cls-7" d="M290.89,329.92c-3.46,.19-6.79,.38-10.11,.55-.75,.04-1.59,.11-1.8-.89-.2-.95,.39-1.45,1.17-1.81,3.57-1.64,8.23-.75,10.73,2.15Z"/>
  <path class="cls-7" d="M306.81,328.8c.95-.03,1.91-.16,2.85,.14,.96,.31,1.42,.95,1.49,1.92,.06,.88-.33,1.34-1.24,1.31-1.78-.06-3.55-.3-5.33-.26-.91,.02-1.47-.55-1.53-1.48-.06-.96,.53-1.5,1.39-1.62,.77-.11,1.58-.02,2.36-.02Z"/>
  <path class="cls-15" d="M292.58,353.29c1.55-1.04,3.14-.36,4.69-.13,1.79,.26,2.92-.37,3.44-2.04,.12-.38-.07-1.11,.59-1.02,.65,.09,1.22,.55,1.43,1.24,.12,.39,.1,.83-.19,1.18-2.11,2.53-7.09,3.36-9.96,.77Z"/>
  <path class="cls-15" d="M296.88,346.63c-1.52-4.51-1.06-8.95,.55-13.63,.5,4.75-1.11,9.14-.55,13.63Z"/>
  <path class="cls-15" d="M261.96,366.94c-.71-.41-.88-.94-.91-1.61q.82,.41,.91,1.61Z"/>
  <path class="cls-15" d="M262.51,367.47s-.08-.06-.13-.09c.02,0,.06,0,.07,.01,.02,.03,.03,.06,.04,.09,0,0,.02-.02,.02-.02Z"/>
  <path class="cls-5" d="M236.68,385.75c1.32,3.27,2.63,6.54,3.95,9.81,4.65,11.52,8.89,23.16,11.71,35.29,1.62,6.97,2.64,14.04,3.66,21.11,.94,6.5,1.73,13.02,2.39,19.56,.57,5.58,1.1,11.17,1.52,16.77,.51,6.88,.89,13.78,1.32,20.67,.02,.33,0,.67,0,1-1.98,.72-2,.73-3.27-1.19-.48-.73-1.06-1.14-1.94-1.07,0-.58,.02-1.16-.02-1.74-.09-1.31-1.03-2.48-2.23-2.87-.42-.14-.73-.2-.75,.4-.04,1.48,1.5,3.7,2.96,4.24,.68,3.67,2.73,6.36,5.87,8.28,.04,1.56,.08,3.12,.12,4.68-.44,.09-.82-.14-1.2-.27-8.05-2.78-16.08-5.59-24.14-8.35-6.95-2.39-13.92-4.73-20.89-7.07-2-.67-3.71-1.64-3.9-4-.08-.98,.07-1.98,.22-2.96,.7-4.67,.91-9.4,1.45-14.09,.29-2.55,.55-5.11,.84-7.66,.38-3.37,.78-6.75,1.15-10.12,.37-3.34,.69-6.67,1.06-10.01,.38-3.46,.8-6.91,1.19-10.36,.41-3.62,.84-7.24,1.18-10.87,.1-1.02,.57-2.03,.21-3.08-.19-.55-.42-1.16-1.15-1.12-.76,.04-.88,.69-.95,1.27-.13,.99-.18,1.98-.28,2.97-.35,3.42-.69,6.84-1.05,10.26-.39,3.62-.8,7.24-1.2,10.86-.28,2.55-.52,5.11-.81,7.66-.38,3.46-.82,6.91-1.18,10.37-.38,3.58-.68,7.18-1.05,10.76-.47,4.61-.95,9.23-1.47,13.84-.26,2.25-.9,4.02-4.09,2.68-2.88-1.21-5.86-2.11-8.81-3.12-.3-.1-.64-.43-1.07-.08,.8,1.72,2.29,2.62,3.96,3.2,11.8,4.12,23.62,8.21,35.43,12.3,6.28,2.18,12.62,4.17,18.83,6.54,2.53,.96,5.04,1.96,7.83,1.66,4.05,1.87,8.43,2.84,12.54,4.55,1.48,.62,2.96,1.26,4.24,2.26-3.39,2.21-5.7,5.23-6.97,9.07-.67,2.01-1.13,4.06-1.6,6.12l-.06,.04c-1.29,.26-2.59,.47-3.87,.78-2.15,.53-4.36,.92-6.17,2.35-5.71,0-11.42,.02-17.12,.02-.59-.92-1.57-1.08-2.5-1.11-3.61-.1-7.2-.45-10.79-.75-5.2-.44-10.36-1.19-15.5-2.1-8.12-1.42-16.11-3.41-24.12-5.33-2.45-.59-4.85-1.44-7.39-1.61,0,0,.01,.02,.01,.02-.06-.06-.12-.13-.18-.19-3.77-2.07-7.35-4.43-10.46-7.39-3.92-3.72-6.38-8.28-7.1-13.67-.58-4.35-.29-8.7,.19-13.05,.33-3.01,.52-6.03,.81-9.05,.38-4.05,.78-8.09,1.2-12.13,.41-3.92,.82-7.84,1.3-11.75,.48-3.87,.99-7.73,1.58-11.59,.98-6.35,2.11-12.67,3.6-18.93,.09-.39,.01-.83,.01-1.24,1.11-3.82,2.22-7.65,3.32-11.47,.89-3.11,1.5-6.29,2.81-9.28,2.53-5.8,6.43-10.45,11.57-14.06,6.68-4.7,14.17-7.83,21.67-10.9,5.5-2.24,11.15-4.07,16.91-5.52-.15,2.85-.37,5.71-.45,8.56-.14,4.85-.4,9.71-.47,14.56-.15,9.57-.06,19.14-.07,28.71,0,1.48,.63,2.55,2.01,3.14,.45,1.8,1.36,3.34,2.92,4.34,2.63,1.68,5.37,3.2,7.05,5.99,.2,.33,.63,.53,.98,.74,1.22,.73,3.06,.61,3.39,2.58,.06,.33,.67,.5,.67,1.08,0,2.12,.11,4.25-.34,6.33-1.06,4.89-2.2,9.77-3.29,14.66-.58,2.59-.62,5.12,.29,7.71,2.11,6.02,5.19,11.5,8.86,16.67,.38,.53,.63,1.25,1.52,1.54-.15-1.27-.45-2.39-.84-3.47-1.06-2.92-2.97-5.37-4.47-8.05-1.99-3.54-3.64-7.17-3.54-11.38,.04-1.82,.47-3.52,.98-5.23,1.57-5.21,2.07-10.64,3.28-15.92,.17-.73,.13-1.55-.39-2.15-.85-.99-1.77-1.86-2.44-3.04-.4-.71-1.23-1.31-1.7-2.08-1.37-2.25-3.9-2.97-5.9-4.36-.74-.52-1.26-.98-1.66-1.71-1.19-2.18-2.9-3.7-5.39-4.23,.13-7.74-.21-15.47,.22-23.21,.21-3.69,.06-7.39,.21-11.09,.28-6.9,.23-13.8,.32-20.71,1.13-1.25,2.11-1.48,3.6-.82,.45,.2,.89,.4,1.34,.61Z"/>
  <path class="cls-2" d="M231.75,385.96c-.09,6.9-.04,13.81-.32,20.71-.15,3.7,0,7.4-.21,11.09-.44,7.73-.1,15.47-.22,23.21l.02-.02c-1.38-.59-2.01-1.66-2.01-3.14,0-9.57-.08-19.14,.07-28.71,.07-4.85,.33-9.7,.47-14.56,.08-2.86,.3-5.71,.45-8.56,.59,0,1.17-.01,1.76-.02Z"/>
  <path class="cls-13" d="M270.28,543.9c.47-2.05,.93-4.11,1.6-6.12,1.27-3.84,3.59-6.86,6.97-9.07,3.49,1.42,7.09,1.71,10.82,1.33,2.63-.27,5.29-.26,7.93-.37,6.55,.04,13,.94,19.41,2.19,.31,.31,.66,.36,1.06,.21,3.54,2.82,7.22,5.48,10.17,8.97,1.05,1.24,1.97,2.57,2.72,4.01,1.16,2.2,1.37,2.29,3.67,1.5,.27-.09,.56-.14,.84-.2-.07,1.21-.8,1.65-1.91,1.61-11.83-.51-23.68-.11-35.51-.27,0-.08,0-.16,.03-.23,4.47-.12,8.98,.29,13.67-.88-1.05-.21-1.82-.37-2.6-.51-3.71-.69-7.39-1.65-11.22-1.3-3.45-.77-6.94-1.12-10.48-1.08-5.73,.07-11.45,.14-17.18,.22Z"/>
  <path class="cls-1" d="M182.75,536.2c2.54,.17,4.94,1.02,7.39,1.61,8.01,1.93,16.01,3.91,24.12,5.33,5.13,.9,10.29,1.66,15.5,2.1,3.59,.3,7.18,.66,10.79,.75,.93,.02,1.91,.19,2.5,1.11-.36,.29-.72,.58-1.08,.86-5.21-.24-10.41-.64-15.61-1.2-10.31-1.11-20.47-2.97-30.51-5.56-4.29-1.1-8.55-2.34-12.82-3.51-.13-.49-.36-.96-.29-1.49Z"/>
  <path class="cls-4" d="M270.28,543.9c5.73-.07,11.45-.15,17.18-.22,3.53-.04,7.03,.3,10.48,1.08-.38,.92-.12,1.81,.14,2.69-.03,.08-.04,.15-.03,.23-11.25,0-22.5,.02-33.76,.02-.36,0-.76,.11-1.04-.25,1.09-.84,2.38-.51,3.59-.55,2.39-.08,3.23-.8,3.38-2.97l.06-.04Z"/>
  <path class="cls-1" d="M270.22,543.94c-.15,2.17-.99,2.89-3.38,2.97-1.21,.04-2.49-.29-3.59,.55-1.12,.61-2.07-.08-3.07-.39,1.81-1.43,4.02-1.82,6.17-2.35,1.28-.32,2.58-.53,3.87-.78Z"/>
  <path class="cls-1" d="M182.58,536.02c.06,.06,.12,.13,.18,.19-.06-.06-.12-.13-.18-.19Z"/>
  <path class="cls-9" d="M237.13,329.68c-.19,1.94-.08,3.87-.15,5.79-.08,2.02,.63,3.64,2.09,4.99,.21,.2,.41,.41,.59,.64,.14,.18,.16,.42-.06,.53-.11,.06-.36,.04-.45-.04-2.09-1.96-3.61-4.27-3.87-7.19-.16-1.81,.71-3.33,1.86-4.72Z"/>
  <path class="cls-9" d="M240.96,342.28c2.44,0,4.62,0,6.8,0-1.01,1.76-4.19,1.84-6.8,0Z"/>
  <path class="cls-9" d="M253.48,335.8c-.54-1.73-.87-3.46-.05-5.43,1.14,1.97,.69,3.7,.05,5.43Z"/>
  <path class="cls-9" d="M249.49,325.49c1.62,.25,2.18,1.76,3.21,2.72,.06,.05-.04,.31-.11,.44-.02,.04-.27,.02-.32-.04-.86-1.1-2.2-1.77-2.76-3.13l-.02,.02Z"/>
  <path class="cls-9" d="M251.03,340c-.25,.94-.44,1.63-1.33,1.69-.28,.02-.48-.21-.42-.5,.17-.87,.92-.92,1.76-1.2Z"/>
  <path class="cls-9" d="M251.19,339.76c.36-.68,.72-1.36,1.1-2.03,.08-.14,.2-.28,.4-.21,.2,.07,.24,.24,.15,.39-.42,.71-.48,1.68-1.64,1.85Z"/>
  <path class="cls-9" d="M247.62,324.32c-.41,.82-.96,.72-1.57,.42-.24-.12-.29-.3-.11-.47,.58-.56,1.1-.06,1.68,.05Z"/>
  <path class="cls-9" d="M249.51,325.47s-.07-.03-.1-.05c.03,.02,.06,.04,.09,.06,0,0,.02-.02,.02-.02Z"/>
  <path class="cls-2" d="M262.07,521.9c-2.79,.3-5.3-.69-7.83-1.66-6.21-2.37-12.55-4.36-18.83-6.54-11.81-4.09-23.63-8.18-35.43-12.3-1.66-.58-3.15-1.48-3.96-3.2,.43-.35,.77-.02,1.07,.08,2.95,1.01,5.93,1.91,8.81,3.12,3.19,1.34,3.84-.43,4.09-2.68,.52-4.61,1-9.22,1.47-13.84,.37-3.59,.67-7.18,1.05-10.76,.36-3.46,.8-6.91,1.18-10.37,.28-2.55,.53-5.11,.81-7.66,.39-3.62,.81-7.24,1.2-10.86,.36-3.42,.71-6.84,1.05-10.26,.1-.99,.15-1.98,.28-2.97,.07-.57,.19-1.23,.95-1.27,.73-.04,.97,.57,1.15,1.12,.35,1.04-.12,2.05-.21,3.08-.34,3.63-.77,7.25-1.18,10.87-.39,3.46-.81,6.91-1.19,10.36-.37,3.33-.7,6.67-1.06,10.01-.37,3.37-.77,6.75-1.15,10.12-.29,2.55-.55,5.11-.84,7.66-.54,4.69-.75,9.41-1.45,14.09-.15,.98-.3,1.99-.22,2.96,.19,2.36,1.9,3.32,3.9,4,6.97,2.34,13.94,4.68,20.89,7.07,8.05,2.76,16.09,5.58,24.14,8.35,.38,.13,.76,.36,1.2,.27,.03,.4,.07,.8,.1,1.21Z"/>
  <path class="cls-1" d="M297.08,502.92c.52,.18,.55,.67,.72,1.09,.23,.58,.45,1.17,.99,1.55,.51,.36,.84,.58,1.04-.36,1.53-6.92,3.9-13.62,5.53-20.51,1.09-4.63,1.65-9.31,1.36-14.07-.15-2.44-.63-4.84-1.29-7.2-.11-.4-.27-.79-.19-1.21,3.33,2.69,4.43,6.35,3.87,10.36-1.31,9.32-3.34,18.5-5.86,27.57-.98,3.52-2.15,6.98-3.34,10.43-.37,1.06-.83,2.12-2.13,2.4-1.12-2.34-1.1-4.83-.94-7.33,.06-.91,.16-1.82,.24-2.73Z"/>
  <path class="cls-2" d="M261.85,516.01c-3.14-1.92-5.19-4.62-5.87-8.28l.03-.03c.89-.08,1.46,.34,1.94,1.07,1.27,1.92,1.29,1.91,3.27,1.19,.75,.77,.77,1.76,.77,2.74,0,1.11,.07,2.22-.15,3.31Z"/>
  <path class="cls-1" d="M316.03,461.96c0-11.49,0-22.97,0-34.46,0-.16,.03-.33,.11-.49,.2,2.04,.42,4.08,.58,6.13,.35,4.42,.77,8.84,.97,13.26,.23,5.18,.42,10.37,0,15.56-.55,0-1.11,0-1.66,0Z"/>
  <path class="cls-1" d="M318.07,532.07c-.4,.15-.75,.1-1.06-.21-.19-15.11-.79-30.23,.99-45.33v1.58c0,14.11,0,28.22,0,42.33,0,.54,.04,1.08,.07,1.62Z"/>
  <path class="cls-2" d="M316.03,461.96c.55,0,1.11,0,1.66,0,.01,5.57,.02,11.15,.05,16.72,0,.72-.36,.97-.98,1-.71,.04-.78-.44-.78-1,.02-5.57,.03-11.15,.04-16.72Z"/>
  <path class="cls-1" d="M300.76,455.8c-.69-.92-1.48-1.76-2.03-2.8-.7-1.32-.69-2.63-.01-3.91,.84-1.57,1.95-2.95,3.29-4.14,0,.89-.27,1.73-.56,2.54-.99,2.72-1.25,5.47-.69,8.31Z"/>
  <path class="cls-1" d="M305,461.97c-1.93-.46-2.82-1.91-3.4-3.63-.26-.78-.45-1.59-.67-2.39,1.3,.26,2.19,1.06,2.78,2.21,.62,1.21,1.05,2.48,1.3,3.82Z"/>
  <path class="cls-1" d="M301.99,444.98c.23-1.31,.58-2.58,1.37-3.67,.64-.87,1.52-1.37,2.65-1.35-.72,2.17-1.43,4.34-4.02,5.02Z"/>
  <path class="cls-1" d="M305.99,439.98c.09-.09,.18-.18,.27-.27-.09,.09-.18,.18-.27,.27Z"/>
  <path class="cls-1" d="M305.25,462.22c-.09-.09-.18-.18-.27-.26,.09,.09,.18,.18,.27,.26Z"/>
  <path class="cls-2" d="M230.99,440.98c2.48,.53,4.2,2.05,5.39,4.23,.4,.73,.91,1.19,1.66,1.71,1.99,1.39,4.53,2.1,5.9,4.36,.47,.77,1.3,1.37,1.7,2.08,.67,1.18,1.59,2.06,2.44,3.04,.51,.6,.56,1.42,.39,2.15-1.21,5.28-1.71,10.71-3.28,15.92-.52,1.71-.94,3.41-.98,5.23-.1,4.21,1.55,7.84,3.54,11.38,1.5,2.68,3.41,5.13,4.47,8.05,.4,1.09,.69,2.2,.84,3.47-.88-.29-1.14-1.01-1.52-1.54-3.67-5.17-6.75-10.65-8.86-16.67-.91-2.59-.86-5.12-.29-7.71,1.09-4.89,2.23-9.76,3.29-14.66,.45-2.08,.34-4.21,.34-6.33,0-.58-.61-.75-.67-1.08-.34-1.97-2.17-1.85-3.39-2.58-.35-.21-.79-.42-.98-.74-1.68-2.8-4.42-4.31-7.05-5.99-1.56-1-2.47-2.54-2.92-4.34,0,0-.01,.02-.01,.02Z"/>
  <path class="cls-2" d="M255.98,507.73c-1.47-.55-3-2.76-2.96-4.24,.02-.6,.33-.54,.75-.4,1.2,.39,2.14,1.56,2.23,2.87,.04,.58,.01,1.16,.02,1.74,0,0-.03,.03-.03,.03Z"/>
  <path class="cls-7" d="M298.07,547.45c-.27-.89-.53-1.77-.14-2.69,3.83-.35,7.51,.61,11.22,1.3,.77,.14,1.54,.3,2.6,.51-4.69,1.17-9.2,.76-13.67,.88Z"/>
</svg>