<svg id="Calque_1" data-name="Calque 1" xmlns="http://www.w3.org/2000/svg" viewBox="0 0 566.93 566.93"><defs><style>.cls-1{fill:#ed6f23;}.cls-2{fill:#fff;}.cls-3{fill:#0067b5;}</style></defs><path class="cls-1" d="M423.42,413.23,326,504.51a41.62,41.62,0,0,1-10.6,6.73c-12.86,5.63-25,3-29.76,1.75L30.32,302.67c-1-.95-9-8.62-7.89-20a24.08,24.08,0,0,1,6.46-14L285.17,52.47c8.17-7.54,29.59-12,37.13-3.8,36.46,30.77,74.57,65.22,113.44,103.64C475.4,191.52,510.92,230,542.62,266.79a31.54,31.54,0,0,1,1.75,14.6c-1.42,11.09-9.06,18.49-12.09,21.46C519.59,315.31,479.19,356.87,423.42,413.23Z"/><path class="cls-2" d="M429.69,278.15S481.61,256.63,487,246l9.9,60.68S446,325,424.59,320.39c0,0,56.13-13.89,62.09-19l-7.09-38.27S446,280.08,429.69,278.15Z"/><path class="cls-2" d="M426,324.36s54.57-4,68.95-10.78v10.78S440.84,330,426,324.36Z"/><path class="cls-2" d="M426,329.46s59.64,2.86,67.75-2.4v10.23S438.48,340,426,329.46Z"/><path class="cls-3" d="M188.93,185h13.76l11.44,26.89L225.66,185h13.75v55H225.58l.08-15.86.84-11.11L226,213l-2.92,7.62-4.22,11.27h-9.45l-4.54-11.66L202.15,213l-.39.08.93,11.11v15.86H188.93Z"/><path class="cls-3" d="M258.27,238.65a19.73,19.73,0,0,1-8.37-6.45,16.65,16.65,0,0,1-3.19-10.26V203.13a16.76,16.76,0,0,1,3.19-10.33,19.52,19.52,0,0,1,8.33-6.42,29.27,29.27,0,0,1,22,0,19.73,19.73,0,0,1,8.37,6.45,16.65,16.65,0,0,1,3.19,10.26v18.81a16.65,16.65,0,0,1-3.19,10.26,19.74,19.74,0,0,1-8.33,6.45,28.89,28.89,0,0,1-22,0Zm17.18-12.32a4.92,4.92,0,0,0,2.61-4.39V203.13a5.09,5.09,0,0,0-2.65-4.62,12.11,12.11,0,0,0-6.34-1.6,10.76,10.76,0,0,0-6,1.68,5.16,5.16,0,0,0-2.58,4.54v18.81a4.88,4.88,0,0,0,2.62,4.43,11.89,11.89,0,0,0,6.22,1.55A11.64,11.64,0,0,0,275.45,226.33Z"/><path class="cls-3" d="M309.37,238.65A19.76,19.76,0,0,1,301,232.2a16.65,16.65,0,0,1-3.19-10.26V203.13A16.76,16.76,0,0,1,301,192.8a19.61,19.61,0,0,1,8.34-6.42,29.24,29.24,0,0,1,22,0,19.67,19.67,0,0,1,8.37,6.45,16.65,16.65,0,0,1,3.19,10.26v18.81a16.65,16.65,0,0,1-3.19,10.26,19.74,19.74,0,0,1-8.33,6.45,28.87,28.87,0,0,1-22,0Zm17.17-12.32a4.92,4.92,0,0,0,2.61-4.39V203.13a5.07,5.07,0,0,0-2.65-4.62,12.11,12.11,0,0,0-6.34-1.6,10.78,10.78,0,0,0-6,1.68,5.15,5.15,0,0,0-2.57,4.54v18.81a4.89,4.89,0,0,0,2.61,4.43,11.89,11.89,0,0,0,6.22,1.55A11.59,11.59,0,0,0,326.54,226.33Z"/><path class="cls-3" d="M343.75,185H358.5L367,211.84l2.46,13h.23l2.45-13,8.61-27h14.75l-19.59,55h-12.6Z"/><path class="cls-2" d="M86.52,230.53H111.8L125.93,277,154,230.53h25.28l-14,95H139.91L144,298.17,148.24,279l-.71-.14-9.6,17.31-8.33,15.3H112.23L108,295.62l-4.38-16.78-.56.14-1.27,19.19-4,27.37H72.54Z"/><path class="cls-2" d="M186.24,324.47A23.66,23.66,0,0,1,176,317.29,17.39,17.39,0,0,1,172.15,306a32.1,32.1,0,0,1,.3-3.62l3.43-22a26.2,26.2,0,0,1,6.71-14,33.79,33.79,0,0,1,13-8.65,46.85,46.85,0,0,1,15.88-3q11.63.13,19.68,5.7t8.06,15.9a39.7,39.7,0,0,1-.3,4l-3.43,22A24,24,0,0,1,229,315.68a34.26,34.26,0,0,1-13.05,8.39A45.73,45.73,0,0,1,200,326.88,38.44,38.44,0,0,1,186.24,324.47Zm21.77-18a5.48,5.48,0,0,0,2.61-3.89l3.43-22.68a3.75,3.75,0,0,0-1.56-3.7,7.16,7.16,0,0,0-4.4-1.4,9.26,9.26,0,0,0-4.85,1.4,5,5,0,0,0-2.61,3.7L197.2,302.6a3.92,3.92,0,0,0,1.49,3.75,6.57,6.57,0,0,0,4.33,1.48A9.29,9.29,0,0,0,208,306.49Z"/><path class="cls-2" d="M258.05,256.16a73.57,73.57,0,0,1,14.51-1.47q13.35,0,21.54,5.16t8.18,16.31a26.4,26.4,0,0,1-.43,4.69l-6.75,44.69H271L277.72,281l.15-1.34q0-5.1-6.46-5.1a14.51,14.51,0,0,0-5,.8l-7.61,50.19H234.5l9.91-65.22A70.71,70.71,0,0,1,258.05,256.16Z"/><path class="cls-2" d="M315.18,324.33a22.12,22.12,0,0,1-9.35-7.51A19.75,19.75,0,0,1,302.28,305c0-.81.09-2.1.28-3.89l2.86-19.86a29,29,0,0,1,6.14-14.36,31.48,31.48,0,0,1,12-9.13,36.35,36.35,0,0,1,14.6-3.08q10.36,0,17.12,5.43t6.76,15.37a28.33,28.33,0,0,1-.41,4.69A21.2,21.2,0,0,1,352.36,295a32.65,32.65,0,0,1-18.42,5.44,43.77,43.77,0,0,1-9.28-.94v.4a7.75,7.75,0,0,0,2.73,6.38,10.5,10.5,0,0,0,6.82,2.21,15.72,15.72,0,0,0,5.46-1,12.93,12.93,0,0,0,4.64-2.88l11.05,11q-6.69,6.72-13.44,9a44.29,44.29,0,0,1-14.26,2.28A30.62,30.62,0,0,1,315.18,324.33Zm23.19-39.52a7.63,7.63,0,0,0,2.66-6.24,5.13,5.13,0,0,0-1.43-3.75,5.52,5.52,0,0,0-4.16-1.48,8.21,8.21,0,0,0-4.91,1.68,6.46,6.46,0,0,0-2.73,4.49l-1,6.58a13.07,13.07,0,0,0,5.05,1.07A10.36,10.36,0,0,0,338.37,284.81Z"/><path class="cls-2" d="M372,349.8a42.57,42.57,0,0,1-12.53-7.49L371,329.39a21.13,21.13,0,0,0,12.87,4.35q9.79,0,11.2-8.84v-.28a31.06,31.06,0,0,1-11.06,1.91A22.64,22.64,0,0,1,368.1,321q-6.44-5.71-6.44-15.65a25.05,25.05,0,0,1,.28-4.35l6.72-46.26h22.95l-6.86,47.48a6.57,6.57,0,0,0-.14,1.5c0,1.91.61,3.2,1.82,3.88a10,10,0,0,0,4.9,1,11,11,0,0,0,5.45-1.5l7.42-52.38h23.23L418.05,320q-2.52,17.14-11.05,24.76t-21.41,7.62A38.11,38.11,0,0,1,372,349.8Z"/></svg>