<svg id="Calque_1" data-name="Calque 1" xmlns="http://www.w3.org/2000/svg" viewBox="0 0 1077.82 453.54"><defs><style>.cls-1{fill:#f01010;}.cls-2{fill:#fff;}</style></defs><path class="cls-1" d="M989.75,166.31a6.13,6.13,0,0,0-.35,1.21A29,29,0,0,1,977.07,189a31.06,31.06,0,1,1,12-31.18c.25,1.24.42,2.5.63,3.74Zm-7.49,10.88c-.16-.36-.18-.53-.26-.57a6.11,6.11,0,0,0-.85-.3c-1.52-.39-1.64-.51-1.83-2.06-.06-.54-.08-1.1-.1-1.65-.12-3.12-.26-6.23-.34-9.35,0-2-.08-3.92,0-5.88.08-1.6.34-2.39,2.19-2.6a4.6,4.6,0,0,0,1.15-.52c-1.17-.57-3.89-.68-6-.33-1.83,4.88-7.64,16.77-9,18.36-1.53-3.06-3-6-4.5-9s-3.21-6-3.84-9.38c-3.64-.31-5.1-.19-5.9.5a3.59,3.59,0,0,0,.61.36c2.35.81,2.4.83,2.31,3.38-.12,3.36-.26,6.73-.46,10.09-.11,1.89-.38,3.77-.53,5.65-.11,1.39-.65,2.33-2.17,2.49-.31,0-.58.39-.88.59l.12.44h2.64c.92,0,1.84.07,2.75,0s1.79.51,2.68-.57c-.59-.19-1-.36-1.46-.46-1.32-.31-1.51-.47-1.69-1.76a8,8,0,0,1-.06-1.47c.12-3.67.25-7.33.4-11,0-.87.15-1.74.24-2.61a22.24,22.24,0,0,1,1.92,3.62c.56,1.22,1.13,2.44,1.7,3.66l1.8,3.82c.57,1.22,1.1,2.46,1.74,3.64s.72,2.54,1.93,3.63c1.06-2.2,2-4.23,3-6.24s2.08-4.16,3.17-6.21a35.62,35.62,0,0,1,3.19-5.8c.15,2.86.15,5.67.15,8.48,0,2.08.05,4.16,0,6.24,0,1.47-.19,1.6-1.62,2a12.12,12.12,0,0,0-1.26.46c.15.3.21.49.26.49,2.62.07,5.25.13,7.87.17A3.61,3.61,0,0,0,982.26,177.19ZM933,166.61a22.64,22.64,0,0,0,10.09,1,13.77,13.77,0,0,0,6-2.05,5.77,5.77,0,0,0,2.64-5.84c-.35-3.29-2.53-5.44-6-6a40.46,40.46,0,0,0-10.43-.06,3,3,0,0,0-.87.38c.07.26.07.45.14.48a6.77,6.77,0,0,0,1.18.38c1.36.3,1.65.55,1.69,1.95.07,2.26,0,4.53.06,6.79,0,.72,0,1.43,0,2.26h3.1v-9.76c0-.66.09-1.18.87-1.39,2.57-.67,5.81,1,6.45,3.55,1,4-.31,7.38-4.75,8.07a15.85,15.85,0,0,1-2.37.23c-2,0-4,0-6.06,0Zm4.47,1.89c0,1.92,0,3.56,0,5.19-.06,2.1-.25,2.28-2.26,2.91-.29.09-.49.44-.74.67l.18.42c3,0,5.93,0,8.89,0,.18,0,.37-.24.53-.35-.15-.88-.81-.7-1.31-.79-1.51-.28-1.9-.61-2-2.1-.12-1.15-.06-2.32-.08-3.48,0-.71-.06-1.41-.09-2.21Z"/><path d="M667.7,291.41c-3.12-7.38-11.79-8.83-17.31-3-.14.16-.33.29-.66.58-.18-1.26-.33-2.33-.49-3.48h-5.36c0,.59-.07,1.06,0,1.54q.06,15.87.11,31.77c0,.6-.09,1.21-.13,1.81h6.62c-.31-4.16-.18-11,.16-12.11a25.45,25.45,0,0,0,4.11,2.14,10.61,10.61,0,0,0,12.61-5.74A15.87,15.87,0,0,0,667.7,291.41Zm-6.31,11.5a5.63,5.63,0,0,1-6.4,3.17,5.74,5.74,0,0,1-4.62-5.43c0-.78,0-1.59,0-2.38a.58.58,0,0,0-.18,0,29.47,29.47,0,0,1,.57-4.14,5.75,5.75,0,0,1,5.19-4.25,5.6,5.6,0,0,1,5.55,3.46A11,11,0,0,1,661.39,302.91Z"/><path class="cls-1" d="M546.71,149.13c0,5.78,1.83,10.89,3.93,16,3.28,7.93,7.28,15.51,11.06,23.19q9.78,19.85,19.51,39.72c.48,1,1,1.91,1.67,3.09a13.75,13.75,0,0,0,1-1.29c1.53-2.72,3.14-5.4,4.52-8.2q11.69-23.72,23.26-47.49,2.94-6,5.74-12.11a40.12,40.12,0,0,0,3.74-12.24,2,2,0,0,1,.19-.48h25a5.52,5.52,0,0,1,.41,1.16c.27,1.79,0,2-1.85,2.28a65.55,65.55,0,0,0-6.68,1.12,6.36,6.36,0,0,0-5,5.46,38.13,38.13,0,0,0-.66,6.75c-.11,11.75-.15,23.51.5,35.26.26,4.52.29,9.06.45,13.59q.39,11.48.81,22.94c0,.92.18,1.83.28,2.74a6.2,6.2,0,0,0,5,5.84,50.12,50.12,0,0,0,5.63.76c.64.08,1.56-.14,1.68.72a6.6,6.6,0,0,1-.26,2.64c-.07.24-.82.43-1.25.42-1.47,0-2.93-.21-4.4-.23-7.53-.11-15.06-.23-22.6-.25-2.5,0-5,.29-7.51.48-.7.05-1.42.18-1.73-.62a2.81,2.81,0,0,1-.11-2.64,1.7,1.7,0,0,1,1.1-.48c1.22-.16,2.44-.24,3.66-.36.49,0,1-.08,1.46-.16,4.18-.74,5.72-2.38,5.91-6.62.13-2.75.09-5.5.08-8.25l-.39-59.72c0-.7,0-1.41,0-2.11l-.41-.12a16.35,16.35,0,0,0-1.08,1.58c-2,3.9-4.25,7.73-6.07,11.74C606.49,198,599,212.45,591.56,227c-3.83,7.52-7.15,15.29-10.7,23a8.9,8.9,0,0,1-.61,1.33,1.66,1.66,0,0,1-2.94-.28c-.11-.22-.16-.47-.25-.69-1.34-3.42-2.52-6.91-4.06-10.23-8.26-17.76-16.63-35.46-24.9-53.22-2.4-5.16-4.56-10.42-6.85-15.64-.28-.64-.64-1.26-1.16-2.29a10.05,10.05,0,0,0-.38,1.4c-.24,4.77-.49,9.54-.69,14.31-.58,13.83-1.18,27.65-1.67,41.48-.15,4.27,0,8.56.12,12.84a20.53,20.53,0,0,0,.63,3.42,4.82,4.82,0,0,0,4.14,4.12c2.23.37,4.5.5,6.75.74,1.1.11,1.53.5,1.7,1.53a1.7,1.7,0,0,1-2,2.18c-7.89-.79-15.79-.48-23.69-.47-2.2,0-4.4.32-6.6.48-1.33.09-1.7-.27-1.89-1.81-.15-1.32.18-1.71,1.53-2,1.92-.34,3.86-.65,5.76-1.1a6.65,6.65,0,0,0,5.28-5.91c.48-3,.91-6,1.17-9.09.75-9.16,1.47-18.31,2.09-27.47.5-7.45.86-14.91,1.23-22.37.26-5.26.52-10.52.62-15.79a36.36,36.36,0,0,0-.56-6.74,5.4,5.4,0,0,0-4.28-4.54c-2.25-.55-4.53-1-6.8-1.47-1.17-.22-1.51-.51-1.48-1.63,0-1.27.57-1.93,1.63-2a7.08,7.08,0,0,1,.92,0,163.79,163.79,0,0,0,21.48,0C545.54,149.11,546,149.13,546.71,149.13Z"/><path class="cls-1" d="M722.46,221.07V205.63a10.09,10.09,0,0,1,0-1.1c.41-3.6-1.24-6.1-4.23-7.88-.26-.16-.53-.3-.78-.48a1.62,1.62,0,0,1,.33-3c2.46-1.08,5-2.06,7.4-3.22,2.26-1.08,4.44-2.34,6.64-3.54.48-.26,1-.76,1.47-.27a2.51,2.51,0,0,1,.67,1.55c0,1.77-.07,3.55-.11,5.32a8.06,8.06,0,0,0,0,1.1c.16,1.55,1,2,2.38,1.25,2.37-1.27,4.72-2.61,7.12-3.81a31.39,31.39,0,0,1,11.21-3.34c5.68-.5,11,.31,15.27,4.63A17.72,17.72,0,0,1,774.59,203a32.72,32.72,0,0,1,.33,4.94c0,10,0,20,.05,30a35.37,35.37,0,0,0,.4,4.93,4.19,4.19,0,0,0,3.58,3.7c1.38.27,2.78.44,4.16.66s1.89.92,1.73,2.07a1.7,1.7,0,0,1-2.1,1.67,107.6,107.6,0,0,0-14.69-.47c-3.85.06-7.7.29-11.55.47-.69,0-1.35.21-1.75-.58a2.65,2.65,0,0,1,0-2.63c.17-.29.7-.43,1.09-.51,1.32-.28,2.66-.46,4-.77a4.41,4.41,0,0,0,3.56-4.15,31.88,31.88,0,0,0,.3-3.65c0-9.5.1-19,0-28.48a23,23,0,0,0-1.09-6.47,11,11,0,0,0-8.24-7.64,20.09,20.09,0,0,0-13,.73c-4.85,2-7.28,5.58-7.47,10.75,0,1.1,0,2.21,0,3.31,0,8.82,0,17.64,0,26.46a41.07,41.07,0,0,0,.28,4.57c.34,3,1.26,4,4.24,4.74,1.07.26,2.17.37,3.25.6a1.71,1.71,0,0,1,1.3,2.21c-.21,1.17-.73,1.66-1.84,1.52-6.47-.81-13-.46-19.46-.47-2.25,0-4.51.32-6.77.48-1.3.09-1.65-.23-1.82-1.66s.11-1.89,1.33-2.08,2.31-.27,3.45-.49c2.83-.57,4-1.83,4.3-4.7.21-2.06.34-4.15.36-6.22,0-4.9,0-9.8,0-14.7Z"/><path class="cls-1" d="M74.74,203.57c3.54.27,7.08.56,10.62.8,11,.74,22,1.29,33,.51a59.63,59.63,0,0,0,12.85-2.09c9.7-2.91,15.66-10.08,16.75-20.13a35.6,35.6,0,0,0-.71-12.22c-2.12-8.73-7.67-14-16.37-16a45.29,45.29,0,0,0-12.62-.7c-2.14.11-3,1.09-3.23,3.25-.08,1,0,2,0,2.94q0,19.85,0,39.68c0,.54,0,1.08-.09,1.83-4,.19-8,.16-12.13,0,0-.81-.08-1.52-.08-2.24,0-10.16,0-20.33,0-30.49,0-2.69-.19-5.39-.4-8.07-.27-3.43-1.85-5.24-5.21-6-1.55-.33-3.15-.43-4.73-.63-.48-.06-1-.1-1.45-.19-1.17-.23-1.64-.78-1.64-1.83s.49-1.93,1.63-2.06c2.07-.24,4.15-.45,6.23-.5,8.51-.19,17-.39,25.53-.44A66.37,66.37,0,0,1,140,150.93c1.48.38,2.92.91,4.37,1.38,13.32,4.37,19.54,18.83,17.55,30.11a26,26,0,0,1-3.46,10,24.05,24.05,0,0,1-6.37,6.51c-7.87,5.58-16.69,8.28-26.17,9.3a120.08,120.08,0,0,1-17.06.66A148.57,148.57,0,0,1,87,206.16c-4.09-.77-8.17-1.59-12.25-2.39Z"/><path class="cls-1" d="M708.25,206.83a28,28,0,0,0-19.32-17.42,32.06,32.06,0,0,0-13.81-1c-10.24,1.64-18.35,6.51-23.68,15.6-3.08,5.27-4.26,11-4.49,17.09a70.34,70.34,0,0,0,1,7.81c2.55,10.8,8.86,18.37,19.55,21.94a35.23,35.23,0,0,0,16.31,1.42c11-1.56,19.12-7.12,23.71-17.24A34.78,34.78,0,0,0,708.25,206.83ZM695.4,236.29a24.29,24.29,0,0,1-3.52,6.41,12.86,12.86,0,0,1-8.78,5.17c-6.57.92-12.1-.88-16.3-6.25a31.8,31.8,0,0,1-5.54-12.28,44.3,44.3,0,0,1,.5-22.49,25,25,0,0,1,4.82-9c6-7.4,17.53-6.23,22.59-.8a32.08,32.08,0,0,1,8,16.83c.46,2.69.57,5.46.84,8.19A43,43,0,0,1,695.4,236.29Z"/><path class="cls-1" d="M286.51,220.28c0,5,0,10,0,15.06,0,2,.12,4,.25,6.06a12.32,12.32,0,0,0,.4,2.15,3.52,3.52,0,0,0,3,2.87c1.87.31,3.76.49,5.64.72.18,0,.37,0,.55,0,.7.08,1.53-.14,1.92.74a2.72,2.72,0,0,1-.43,2.6,1.71,1.71,0,0,1-1.25.43c-1.29,0-2.57-.18-3.86-.2-6.49-.13-13-.27-19.46-.31-1.9,0-3.79.28-5.68.43-1.7.14-2.27-.24-2.39-1.66s.37-1.84,2.1-2.07c1.21-.17,2.42-.33,3.62-.56a4.31,4.31,0,0,0,3.82-4.09c.22-2.19.41-4.39.42-6.59,0-12.12,0-24.25,0-36.37,0-2.43-.59-3.07-3-3.06l-4.23,0c-.74,0-1.49,0-1.72-.94a1.71,1.71,0,0,1,1.05-2.23c1.63-.84,3.25-1.73,4.94-2.44,2.07-.87,3.11-2.27,2.89-4.55a13.62,13.62,0,0,1,0-2A85,85,0,0,1,278,166a39.26,39.26,0,0,1,6.9-13.68,27.76,27.76,0,0,1,20.54-11,23.72,23.72,0,0,1,10.31,1.24,11.26,11.26,0,0,1,5.25,3.57,5.8,5.8,0,0,1,1.11,5.83,5.59,5.59,0,0,1-9.34,1.7,35.19,35.19,0,0,0-4.72-4.33,11.18,11.18,0,0,0-15.52,1.77,14.1,14.1,0,0,0-2.88,5.08,60.94,60.94,0,0,0-2.84,15.3c-.23,5.2-.24,10.4-.34,15.61,0,.18,0,.37,0,.55.13,2.5.34,2.68,2.82,2.67,5.33,0,10.66,0,16,0,1.67,0,2.05.37,2.09,2a11.42,11.42,0,0,1-.1,1.65,2.71,2.71,0,0,1-2.95,2.58c-5-.09-9.93,0-14.89,0a9.09,9.09,0,0,0-1.28,0,1.61,1.61,0,0,0-1.55,1.54c-.06.8-.14,1.59-.14,2.38Q286.5,210.36,286.51,220.28Z"/><path class="cls-1" d="M880,235.86c.6-1,1-1.69,1.37-2.39,5-10.28,9.42-20.85,13.53-31.53a32,32,0,0,0,1.08-3.31c.62-2.42.06-3.42-2.33-4.08-1.17-.33-2.4-.49-3.6-.72-.42-.08-.84-.15-1.26-.24a1.94,1.94,0,0,1-1.32-3,1.55,1.55,0,0,1,1-.63,8.64,8.64,0,0,1,1.83,0,159.22,159.22,0,0,0,21.29,0c.31,0,.62,0,.92-.06.95-.18,1.58.64,1.75,1.51a1.76,1.76,0,0,1-1.32,2.07c-.89.22-1.82.3-2.68.58a11.18,11.18,0,0,0-5.91,4.46,48.41,48.41,0,0,0-3.44,5.63c-4.38,8.76-8.79,17.5-13,26.35-7.86,16.58-15.56,33.25-23.36,49.86a28.32,28.32,0,0,1-2.65,4.6c-2.51,3.44-6.38,4.44-10.49,3.11a5.74,5.74,0,0,1-3.85-6.37c.37-3.1,2.31-5.2,5.22-5.51a30,30,0,0,1,3.67-.09,6.13,6.13,0,0,0,5.61-3.19,110.46,110.46,0,0,0,8.09-15.23c1.6-3.67,2.61-7.54,1.67-11.61a39,39,0,0,0-1.36-4.75q-6.18-16.8-12.42-33.56c-1-2.75-2.08-5.49-3.15-8.22a8.5,8.5,0,0,0-6.91-5.38c-1-.18-1.92-.39-2.86-.66s-1.09-.77-.93-2.05.44-1.49,1.43-1.54a19.48,19.48,0,0,1,2,.07,194,194,0,0,0,23.13,0l.92,0c1.6-.05,2,.24,2.18,1.53s-.15,1.85-1.74,2.24c-1.37.33-2.76.57-4.11,1-1.74.52-2,1-1.72,2.85a14.17,14.17,0,0,0,.57,2.31q5.21,15.18,10.46,30.36c.46,1.32,1.07,2.6,1.64,3.88C879.17,234.55,879.47,235,880,235.86Z"/><path class="cls-1" d="M839.09,237a1.8,1.8,0,0,0-2.46.28c-.82.9-1.59,1.87-2.47,2.71a14.24,14.24,0,0,1-9.35,4.18,32.59,32.59,0,0,1-7-.44c-7.59-1.32-13-5.77-16.61-12.41-2.89-5.28-3.79-11.07-3.77-17,0-2.48.77-3.15,3.22-3.14h17.46v.06q7.26,0,14.51,0c1.36,0,2.72,0,4.06-.13a2.93,2.93,0,0,0,3-3,14.54,14.54,0,0,0-1.28-7.88,22.82,22.82,0,0,0-5-6.75c-4-3.7-8.94-5.15-14.17-5.26-11.46-.26-20.39,4.67-26.44,14.37A36.17,36.17,0,0,0,788,229c1,5.59,3,10.77,6.93,14.95,7.79,8.22,17.43,10.23,28.12,7.74a25.36,25.36,0,0,0,16.48-12.3A1.61,1.61,0,0,0,839.09,237Zm-39.76-31.91a9.07,9.07,0,0,1,.56-1.74c3.07-7.34,12.65-12.23,20.34-10.25a16.09,16.09,0,0,1,4.78,2.2,8.25,8.25,0,0,1,3,8.83,2.2,2.2,0,0,1-1.93,1.73c-1.57.2-3.15.44-4.73.53-3.3.16-6.6.24-9.07.33H801.54c-.31,0-.62,0-.91,0C799.36,206.57,799.09,206.26,799.33,205.07Z"/><path class="cls-1" d="M359,237.37a2.77,2.77,0,0,0-1.74-.68c-.42,0-.9.55-1.22.95a18.94,18.94,0,0,1-5.91,4.88c-3.37,1.76-6.89,1.85-10.54,1.49-9.2-.94-15.55-5.78-19.36-14a35.84,35.84,0,0,1-3-15.91c0-2.24.75-2.91,3-2.9h17.64v.08c3.55,0,7.11,0,10.67,0,2.56,0,5.13,0,7.7-.17,2.27-.12,2.76-.66,3-2.87a15.79,15.79,0,0,0-3.32-11.7c-4.38-5.63-10.32-8.23-17.23-8.36-11.55-.18-20.54,4.79-26.44,14.67-5.59,9.33-6.56,19.5-3.79,29.93,1.76,6.6,5.33,12.14,11.34,15.68a29.49,29.49,0,0,0,32.58-1.29,25.34,25.34,0,0,0,6.76-7.9A1.37,1.37,0,0,0,359,237.37Zm-40.2-32.14a11,11,0,0,1,.73-2.25c3.32-7.24,13.09-11.94,20.76-9.83a13.45,13.45,0,0,1,4.42,2.15c2.64,2,3.39,4.85,3,8-.2,1.94-1.05,2.58-3.26,2.75-4.46.31-8.91.53-13.37.79v-.13c-3.37,0-6.73,0-10.1,0a6.74,6.74,0,0,1-1.1,0C318.88,206.53,318.61,206.24,318.81,205.23Z"/><path class="cls-1" d="M210.26,236.65c-1.08-.25-1.5.54-2,1.2a16.91,16.91,0,0,1-14.52,6.36c-11.86-.48-19.17-8.09-22-16.5a41.89,41.89,0,0,1-2.13-13.53c0-2.35.77-3,3.12-3H190.1v0c5,0,10,0,15.07,0a34,34,0,0,0,4-.22c1.69-.2,1.94-.46,2.24-2.14A14.77,14.77,0,0,0,208.65,197c-5.22-7.11-12.56-9.66-21-8.84-12.28,1.19-20.66,8.05-25.43,19.23a37.85,37.85,0,0,0-2.09,22.88c1.76,8.43,5.94,15.44,13.93,19.21,10.62,5,21,4.26,30.78-2.56a22.94,22.94,0,0,0,6.59-7.81A1.63,1.63,0,0,0,210.26,236.65Zm-39.12-31.36a16.58,16.58,0,0,1,.74-2.26c3.26-7.24,13-12,20.71-9.91,2.95.8,5.58,2.16,6.88,5.24a9.67,9.67,0,0,1,.42,5.57,2.12,2.12,0,0,1-1.94,1.91c-1.58.2-3.16.44-4.73.53-3.36.16-6.71.24-9,.33-4.3,0-7.55,0-10.79,0a9.22,9.22,0,0,1-1.29,0C171.33,206.57,170.9,206.15,171.14,205.29Z"/><path class="cls-1" d="M364.1,222.27c.28-12.41,5.3-22.13,15.79-28.89a33,33,0,0,1,12.51-4.56,39.25,39.25,0,0,1,13.88-.37,67.56,67.56,0,0,1,7.77,2.11,3.54,3.54,0,0,1,1.73,1.54,8.35,8.35,0,0,1,.17,8.41c-.85,1.66-3,2.4-4.49.52a21.52,21.52,0,0,0-6.3-5.28c-6-3.44-12.2-3.38-18.26-.31a19.82,19.82,0,0,0-10.26,11.95c-2.62,8.17-2.43,16.17,1.78,23.82,3.64,6.61,8.89,11.17,16.52,12.54a27.56,27.56,0,0,0,9.5.05,15.66,15.66,0,0,0,8.82-4.57c1-1,1.94-2.2,2.87-3.34.75-.92,1.16-1.07,2-.6,1.08.63,1.49,1.45,1.05,2.39a22.13,22.13,0,0,1-6.88,8.69c-10.51,7.78-21.71,8.28-33.24,2.73-7.7-3.71-11.92-10.33-13.79-18.48C364.6,227.89,364.46,225.06,364.1,222.27Z"/><path class="cls-1" d="M216,250.9a13.28,13.28,0,0,1-.57-1.48c-.39-1.49,0-2,1.48-2.26a37.57,37.57,0,0,0,3.78-.72,4.68,4.68,0,0,0,3.69-4.49c.14-2.08.22-4.16.21-6.24,0-9.61-.09-19.22-.14-28.84,0-1.52,0-3,0-4.57a5.37,5.37,0,0,0-2.92-4.58,14.07,14.07,0,0,1-2.09-1.48,1.69,1.69,0,0,1,.45-3.05l14.7-7.12a2.37,2.37,0,0,1,.5-.11c.85.41.83,1.16.83,1.91,0,2.38,0,4.77,0,7.16,0,.65.1,1.29.19,2.3.71-.48,1.14-.74,1.55-1,2.46-1.82,4.9-3.68,7.39-5.46a16.4,16.4,0,0,1,6.41-2.61,7.91,7.91,0,0,1,5.66,1,5.33,5.33,0,0,1,2.82,6.34c-.68,3.31-2.28,5-5.34,5.49a5.19,5.19,0,0,1-3.7-.62,17.55,17.55,0,0,0-5.81-2.66,6.38,6.38,0,0,0-7.46,3.62,17.12,17.12,0,0,0-1.59,6.92c-.09,1.29-.11,2.57-.11,3.86,0,8.57,0,17.15,0,25.72a33.79,33.79,0,0,0,.39,4.93,4.17,4.17,0,0,0,3.61,3.68c2.1.36,4.25.52,6.38.73,1.64.16,2,.55,1.78,2.22-.17,1.38-.5,1.67-1.92,1.54a161.11,161.11,0,0,0-17.44-.53c-3.86.1-7.71.32-11.56.47C216.89,250.91,216.53,250.9,216,250.9Z"/><path class="cls-1" d="M440.79,179.65a8.07,8.07,0,0,1,1.2,0c1.46.2,1.73.51,1.75,2,0,1.9,0,3.8,0,5.69,0,2.56.34,2.89,2.85,2.9,5,0,10,0,15.06,0,1.09,0,2.32-.23,2.77,1.17a4.79,4.79,0,0,1-.52,4.54,2.36,2.36,0,0,1-1.65.49c-5.27,0-10.53,0-15.8,0-2.24,0-2.84.46-3.06,2.66a14.44,14.44,0,0,0,0,1.47c0,9.85-.06,19.71,0,29.56a42,42,0,0,0,.92,7.81c1,4.85,4.22,7.53,9.13,8.16,2.82.37,5.15-.68,7.49-1.91a9,9,0,0,0,.75-.51c.57-.38,1.13-.82,1.8-.18a1.77,1.77,0,0,1,.26,2.33,9.21,9.21,0,0,1-1.64,1.72,22.21,22.21,0,0,1-17,4.88,29,29,0,0,1-3.43-.61,11.08,11.08,0,0,1-8.56-8.2,25.44,25.44,0,0,1-.88-6.15c-.11-3.36.05-6.73.05-10.09q0-12.48,0-25c0-1.16-.05-2.33-.15-3.49-.16-1.86-.8-2.45-2.69-2.48-1.22,0-2.45,0-3.67,0a1.47,1.47,0,0,1-1.72-1.27,1.79,1.79,0,0,1,1.24-2.11c1.81-.74,3.62-1.48,5.4-2.28a14.66,14.66,0,0,0,6.05-5.2C438.11,183.68,439.42,181.69,440.79,179.65Z"/><path class="cls-1" d="M102.75,212.9l12.31.63v1.9c0,5.27-.08,10.53,0,15.8a80.28,80.28,0,0,0,.43,8.06c.47,4.22,2.69,6.51,6.85,7.19,2,.32,4,.46,6,.7,1.33.16,1.71.69,1.55,2.13-.12,1.14-.61,1.81-1.85,1.7-9.16-.8-18.35-.63-27.54-.57-2.93,0-5.87.32-8.8.5-1.5.1-1.76-.1-1.94-1.48-.2-1.61.09-2.06,1.56-2.3s2.91-.39,4.36-.64c3.11-.53,6.26-2.57,6.44-6.66.14-3.05.53-6.1.59-9.15.1-5.27,0-10.53,0-15.8Z"/><path d="M564,285.5h6.27v24.88H565c-.1-1-.19-2.05-.31-3.32a11.57,11.57,0,0,0-1,.88,9.23,9.23,0,0,1-8.43,3.08,7.35,7.35,0,0,1-6.41-4.81,11.89,11.89,0,0,1-.93-3.9c-.12-5.38-.09-10.77-.11-16.15a3,3,0,0,1,.17-.63h6c0,.61.09,1.25.09,1.89,0,3.86,0,7.71,0,11.57a14.94,14.94,0,0,0,.27,2.91c.57,2.69,2,4,4.24,4a5.2,5.2,0,0,0,5.08-3.75,8.46,8.46,0,0,0,.29-2.35c0-4.23,0-8.45,0-12.67Z"/><path d="M698.52,290.83a9.19,9.19,0,0,0-5.56-5.3c-4.82-1.56-11.62-.68-14.83,6.16a15.37,15.37,0,0,0-1.06,10.23c1.13,4.89,4.27,7.83,9.2,8.85a20.91,20.91,0,0,0,9.11-.34c1-.24,1.94-.59,3-.92-.35-1.56-.64-2.9-.9-4-2.55.28-4.84.61-7.15.76a8.06,8.06,0,0,1-4.42-1.07,6,6,0,0,1-3.1-5.42h16.65A15.45,15.45,0,0,0,698.52,290.83ZM683,295.25c.13-3.6,2.66-6.18,5.83-6.05s5,2.38,4.91,6.05Z"/><path d="M771.64,288.3a8.61,8.61,0,0,0-4-2.79c-5.15-1.61-11.94-.4-15,6.53a16,16,0,0,0-1,9.37,10.7,10.7,0,0,0,6.22,8.34c5,2.25,10,1.48,15-.15a11.05,11.05,0,0,0-.83-4.09c-2.49.28-4.8.61-7.09.74a8,8,0,0,1-4.42-1.09,6,6,0,0,1-3.06-5.42h16.54A13.83,13.83,0,0,0,771.64,288.3Zm-14,6.91c.35-3.81,2.88-6.27,6.09-6,3,.26,4.8,2.53,4.64,6Z"/><path d="M746.9,278.63c-5.59-.43-7.26,1.23-6.78,6.74l2.45.05h2.67a13.05,13.05,0,0,1,.14,4.72h-5.32v20.24h-6.38V290.3l-3.33-.24v-4.54l3.19-.2c.11-1.15.18-2.23.32-3.31,1-8.1,7.79-9.58,12.86-8.18a2.89,2.89,0,0,1,.56.38C747.16,275.65,747,277.14,746.9,278.63Z"/><path d="M579.82,309.12c.36-1.35.74-2.74,1.1-4.07,2,.48,3.75,1,5.58,1.35a7.86,7.86,0,0,0,2.73-.12,2.45,2.45,0,0,0,2.14-2,2.52,2.52,0,0,0-1.18-2.85c-.88-.54-1.87-.89-2.8-1.35a32.82,32.82,0,0,1-4.2-2.2c-4-2.77-3.09-7.55-1.05-9.85a9.09,9.09,0,0,1,1.48-1.36c3.21-2.3,9.26-2.4,12.85-.17-.26,1-.52,2.07-.82,3.12a8,8,0,0,1-.39,1,21,21,0,0,0-3.4-1,12.86,12.86,0,0,0-3.61.12,2.13,2.13,0,0,0-1.71,1.94,2.19,2.19,0,0,0,1.12,2.34c.89.52,1.88.88,2.8,1.34a26.62,26.62,0,0,1,4.37,2.28,7.14,7.14,0,0,1-.4,11.61C590.78,311.75,583.66,311.73,579.82,309.12Z"/><path d="M824.69,305.73v4.74a11.36,11.36,0,0,1-7.86-.08,5.7,5.7,0,0,1-3.43-4.05,17.79,17.79,0,0,1-.5-4c-.07-3.36,0-6.73,0-10.09v-2l-3.49-.18v-4.55l3.48-.25v-4.48L819,279v6.36h5.92v4.72h-5.67a12.39,12.39,0,0,0-.19,1.41q0,4.86,0,9.72a14.46,14.46,0,0,0,.07,1.47c.25,2.36,1.39,3.32,3.8,3.21C823.47,305.88,824,305.8,824.69,305.73Z"/><path d="M520.14,310.24l.76-4.91c1.18.16,2.19.34,3.21.43,3.69.32,5.68-1.19,6.31-4.84a19,19,0,0,0,.19-3.29c0-6.55,0-13.1,0-19.65v-2.06h6.27c0,.7.08,1.29.09,1.89,0,6.67,0,13.34,0,20a25.36,25.36,0,0,1-.43,4.92c-1,5-3.6,7.43-8.59,8.19A16,16,0,0,1,520.14,310.24Z"/><path d="M801.36,305.47c.24,1.32.5,2.75.77,4.27a17.35,17.35,0,0,1-9.42,1.2c-8.19-1.21-11.16-7.76-10.53-14.09.7-7,5.59-11.53,12.64-11.9a14,14,0,0,1,7.34,1.21c-.16.7-.33,1.46-.51,2.21s-.35,1.4-.57,2.23a17.51,17.51,0,0,0-2.35-.51,18.79,18.79,0,0,0-4.17,0,6.72,6.72,0,0,0-5.58,5.19,9.82,9.82,0,0,0,.09,5.78,6.83,6.83,0,0,0,6.4,4.94A54.14,54.14,0,0,0,801.36,305.47Z"/><path d="M608.06,290.27l-3.53-.19v-4.56l3.48-.2v-4.5l6.15-1.79v6.35h6v4.7h-5.74c-.07.7-.17,1.22-.17,1.74,0,3,0,6,0,9,0,3.5.22,5.71,5.63,4.93v4.75c-2.94.8-5.91,1.15-8.73-.59-2.2-1.36-2.87-3.61-3-6-.12-3.36-.07-6.73-.09-10.09C608.05,292.65,608.06,291.51,608.06,290.27Z"/><path d="M709,310.39V285.47a37.05,37.05,0,0,1,5.24.06c.09,1.43.17,2.79.25,4.15,2-3.13,4.38-5.27,8.48-4.62v5.78h-1.53a5.59,5.59,0,0,0-6,5.22,22,22,0,0,0-.11,2.57c0,3.42,0,6.85,0,10.27,0,.48-.08,1-.13,1.49Z"/><path class="cls-2" d="M982.26,177.19a3.61,3.61,0,0,1-.94.23c-2.62,0-5.25-.1-7.87-.17-.05,0-.11-.19-.26-.49a12.12,12.12,0,0,1,1.26-.46c1.43-.38,1.6-.51,1.62-2,0-2.08,0-4.16,0-6.24,0-2.81,0-5.62-.15-8.48a35.62,35.62,0,0,0-3.19,5.8c-1.09,2-2.14,4.13-3.17,6.21s-1.95,4-3,6.24c-1.21-1.09-1.32-2.5-1.93-3.63s-1.17-2.42-1.74-3.64l-1.8-3.82c-.57-1.22-1.14-2.44-1.7-3.66a22.24,22.24,0,0,0-1.92-3.62c-.09.87-.21,1.74-.24,2.61-.15,3.67-.28,7.33-.4,11a8,8,0,0,0,.06,1.47c.18,1.29.37,1.45,1.69,1.76.44.1.87.27,1.46.46-.89,1.08-1.85.5-2.68.57s-1.83,0-2.75,0h-2.64l-.12-.44c.3-.2.57-.55.88-.59,1.52-.16,2.06-1.1,2.17-2.49.15-1.88.42-3.76.53-5.65.2-3.36.34-6.73.46-10.09.09-2.55,0-2.57-2.31-3.38a3.59,3.59,0,0,1-.61-.36c.8-.69,2.26-.81,5.9-.5.63,3.36,2.33,6.33,3.84,9.38s3,6,4.5,9c1.4-1.59,7.21-13.48,9-18.36,2.13-.35,4.85-.24,6,.33a4.6,4.6,0,0,1-1.15.52c-1.85.21-2.11,1-2.19,2.6-.1,2-.07,3.92,0,5.88.08,3.12.22,6.23.34,9.35,0,.55,0,1.11.1,1.65.19,1.55.31,1.67,1.83,2.06a6.11,6.11,0,0,1,.85.3C982.08,176.66,982.1,176.83,982.26,177.19Z"/><path class="cls-2" d="M933,166.61h1.76c2,0,4,.06,6.06,0a15.85,15.85,0,0,0,2.37-.23c4.44-.69,5.76-4.11,4.75-8.07-.64-2.55-3.88-4.22-6.45-3.55-.78.21-.88.73-.87,1.39v9.76h-3.1c0-.83,0-1.54,0-2.26,0-2.26,0-4.53-.06-6.79,0-1.4-.33-1.65-1.69-1.95a6.77,6.77,0,0,1-1.18-.38c-.07,0-.07-.22-.14-.48a3,3,0,0,1,.87-.38,40.46,40.46,0,0,1,10.43.06c3.46.56,5.64,2.71,6,6a5.77,5.77,0,0,1-2.64,5.84,13.77,13.77,0,0,1-6,2.05A22.64,22.64,0,0,1,933,166.61Z"/><path class="cls-2" d="M937.47,168.5l3.06.24c0,.8.07,1.5.09,2.21,0,1.16,0,2.33.08,3.48.15,1.49.54,1.82,2,2.1.5.09,1.16-.09,1.31.79-.16.11-.35.35-.53.35-3,0-5.93,0-8.89,0l-.18-.42c.25-.23.45-.58.74-.67,2-.63,2.2-.81,2.26-2.91C937.5,172.06,937.47,170.42,937.47,168.5Z"/></svg>